<?xml version="1.0" standalone="no"?><!DOCTYPE svg PUBLIC "-//W3C//DTD SVG 1.1//EN" "http://www.w3.org/Graphics/SVG/1.1/DTD/svg11.dtd"><svg height="248" node-id="1" sillyvg="true" template-height="248" template-width="248" version="1.1" viewBox="0 0 248 248" width="248" xmlns="http://www.w3.org/2000/svg" xmlns:xlink="http://www.w3.org/1999/xlink"><defs node-id="130"></defs><path d="M 48.25 47.38 C 48.25 47.38 41.68 45.90 43.53 41.80 C 45.38 37.70 50.74 43.38 50.74 43.38 C 50.74 43.38 50.84 39.96 53.19 39.59 C 55.54 39.22 57.68 47.00 48.25 47.38 Z" fill="#d17d92" fill-rule="nonzero" node-id="133" stroke="none" target-height="9.6799965" target-width="16" target-x="41.68" target-y="37.7"></path><path d="M 48.32 48.36 C 48.32 48.36 43.08 52.61 46.56 55.46 C 50.04 58.31 52.32 50.84 52.32 50.84 C 52.32 50.84 53.94 53.84 56.20 53.14 C 58.46 52.44 56.93 44.50 48.32 48.36 Z" fill="#d17d92" fill-rule="nonzero" node-id="135" stroke="none" target-height="13.810001" target-width="15.380001" target-x="43.08" target-y="44.5"></path><path d="M 44.57 48.93 C 42.48 48.93 40.94 47.12 40.32 45.93 C 40.20 45.68 40.29 45.38 40.54 45.25 C 40.79 45.13 41.09 45.22 41.21 45.47 C 41.28 45.61 43.04 48.92 45.84 47.63 C 46.00 47.53 46.21 47.53 46.37 47.63 C 46.54 47.74 46.62 47.93 46.60 48.12 C 46.57 48.31 46.44 48.47 46.26 48.53 C 45.73 48.79 45.16 48.92 44.57 48.93 Z" fill="#261d2a" fill-rule="nonzero" node-id="137" stroke="none" target-height="3.803463" target-width="6.4273834" target-x="40.19569" target-y="45.126537"></path><path d="M 42.86 54.09 C 42.67 54.09 42.50 53.98 42.41 53.81 C 42.12 53.09 42.12 52.29 42.41 51.57 C 42.90 50.37 44.11 49.40 46.03 48.69 C 46.29 48.60 46.57 48.72 46.67 48.98 C 46.76 49.24 46.63 49.53 46.37 49.63 C 45.10 49.97 44.03 50.80 43.37 51.93 C 43.18 52.39 43.18 52.92 43.37 53.38 C 43.48 53.63 43.37 53.93 43.12 54.04 C 43.04 54.08 42.95 54.10 42.86 54.09 Z" fill="#261d2a" fill-rule="nonzero" node-id="139" stroke="none" target-height="5.499954" target-width="4.638012" target-x="42.12079" target-y="48.595215"></path><path d="M 211.31 124.15 C 211.31 124.15 215.03 118.53 218.20 121.72 C 221.37 124.91 214.20 127.90 214.20 127.90 C 214.20 127.90 217.36 129.21 216.87 131.53 C 216.38 133.85 208.30 133.09 211.31 124.15 Z" fill="#9d7f95" fill-rule="nonzero" node-id="141" stroke="none" target-height="15.320007" target-width="13.069977" target-x="208.30002" target-y="118.53"></path><path d="M 210.37 123.86 C 210.37 123.86 208.26 117.46 204.37 119.70 C 200.48 121.94 206.64 126.70 206.64 126.70 C 206.64 126.70 203.24 127.13 203.11 129.50 C 202.98 131.87 210.92 133.28 210.37 123.86 Z" fill="#9d7f95" fill-rule="nonzero" node-id="143" stroke="none" target-height="15.82" target-width="10.440002" target-x="200.48" target-y="117.46"></path><path d="M 211.44 122.34 C 211.18 122.34 210.96 122.14 210.94 121.88 C 210.72 118.65 213.82 117.44 215.49 117.25 C 215.76 117.23 216.00 117.42 216.04 117.69 C 216.06 117.82 216.02 117.96 215.94 118.06 C 215.85 118.17 215.73 118.24 215.60 118.25 C 215.45 118.25 211.73 118.74 211.94 121.81 C 211.95 121.94 211.90 122.07 211.82 122.17 C 211.73 122.27 211.60 122.33 211.47 122.34 Z" fill="#261d2a" fill-rule="nonzero" node-id="145" stroke="none" target-height="5.1146393" target-width="5.3368835" target-x="210.72002" target-y="117.2262"></path><path d="M 210.37 122.12 L 210.37 122.12 C 210.24 122.12 210.11 122.07 210.01 121.97 C 209.92 121.87 209.87 121.74 209.87 121.61 C 210.01 120.31 209.62 119.01 208.80 118.00 C 208.44 117.65 207.96 117.45 207.46 117.44 C 207.33 117.45 207.20 117.41 207.10 117.32 C 207.00 117.24 206.94 117.11 206.93 116.98 C 206.91 116.71 207.11 116.47 207.38 116.44 C 208.15 116.42 208.90 116.72 209.46 117.25 C 210.46 118.14 210.89 119.62 210.87 121.66 C 210.85 121.92 210.63 122.12 210.37 122.12 Z" fill="#261d2a" fill-rule="nonzero" node-id="147" stroke="none" target-height="5.695854" target-width="3.9831848" target-x="206.90681" target-y="116.42498"></path><path d="M 72.17 210.52 C 72.17 210.52 30.68 211.65 29.11 209.43 C 27.54 207.21 31.69 193.51 34.77 195.69 C 37.85 197.87 39.52 203.86 39.52 203.86 C 39.52 203.86 46.01 192.36 47.58 194.58 C 49.15 196.80 53.06 201.98 53.06 201.98 C 53.06 201.98 54.33 192.89 57.43 195.82 C 59.37 197.67 61.18 199.64 62.87 201.72 C 62.87 201.72 66.40 192.56 67.99 195.54 C 69.58 198.52 72.17 210.52 72.17 210.52 Z" fill="#86b98a" fill-rule="nonzero" node-id="149" stroke="none" target-height="19.289993" target-width="44.629997" target-x="27.54" target-y="192.36"></path><path d="M 35.10 209.67 C 34.94 209.67 34.80 209.59 34.70 209.47 C 33.43 207.84 33.54 202.47 33.56 201.83 C 33.56 201.70 33.61 201.57 33.71 201.48 C 33.80 201.39 33.93 201.34 34.06 201.34 L 34.06 201.34 C 34.34 201.35 34.56 201.58 34.55 201.86 C 34.50 203.42 34.55 207.71 35.48 208.86 C 35.65 209.08 35.61 209.39 35.39 209.56 C 35.31 209.63 35.21 209.67 35.10 209.67 Z" fill="#261d2a" fill-rule="nonzero" node-id="151" stroke="none" target-height="8.332703" target-width="2.2178993" target-x="33.43" target-y="201.3373"></path><path d="M 46.44 209.57 C 46.34 209.57 46.24 209.54 46.16 209.48 C 44.16 208.18 44.62 200.86 44.73 199.40 C 44.75 199.12 44.99 198.92 45.27 198.94 C 45.54 198.95 45.75 199.19 45.73 199.47 C 45.48 202.85 45.63 207.93 46.73 208.65 C 46.84 208.72 46.92 208.84 46.95 208.97 C 46.97 209.10 46.95 209.24 46.87 209.35 C 46.78 209.49 46.61 209.58 46.44 209.57 Z" fill="#261d2a" fill-rule="nonzero" node-id="153" stroke="none" target-height="10.661636" target-width="2.813282" target-x="44.16" target-y="198.91566"></path><path d="M 58.19 209.14 C 57.95 209.14 57.74 208.97 57.69 208.73 C 57.20 206.13 56.91 203.50 56.85 200.86 C 56.86 200.73 56.91 200.60 57.01 200.51 C 57.11 200.42 57.25 200.38 57.38 200.39 C 57.66 200.42 57.86 200.65 57.85 200.93 C 57.92 203.49 58.20 206.04 58.68 208.55 C 58.71 208.68 58.68 208.82 58.60 208.93 C 58.53 209.04 58.41 209.12 58.28 209.14 Z" fill="#261d2a" fill-rule="nonzero" node-id="155" stroke="none" target-height="8.761017" target-width="1.856327" target-x="56.85" target-y="200.37898"></path><path d="M 66.48 208.81 C 66.41 208.82 66.35 208.82 66.28 208.81 C 66.03 208.70 65.91 208.41 66.01 208.16 C 66.01 208.11 68.01 203.28 67.24 200.25 C 67.21 200.12 67.23 199.98 67.29 199.87 C 67.36 199.76 67.47 199.67 67.60 199.64 C 67.87 199.58 68.14 199.74 68.21 200.00 C 69.06 203.36 67.02 208.33 66.94 208.54 C 66.85 208.71 66.67 208.82 66.48 208.81 Z" fill="#261d2a" fill-rule="nonzero" node-id="157" stroke="none" target-height="9.247833" target-width="3.1535645" target-x="65.90643" target-y="199.5762"></path><path d="M 187.40 210.37 C 187.40 210.37 145.91 211.50 144.33 209.28 C 142.75 207.06 146.92 193.35 150.00 195.53 C 153.08 197.71 154.75 203.71 154.75 203.71 C 154.75 203.71 161.24 192.20 162.81 194.43 C 164.38 196.66 168.29 201.83 168.29 201.83 C 168.29 201.83 169.56 192.73 172.66 195.67 C 174.60 197.51 176.41 199.48 178.10 201.56 C 178.10 201.56 181.63 192.40 183.22 195.38 C 184.81 198.36 187.40 210.37 187.40 210.37 Z" fill="#86b98a" fill-rule="nonzero" node-id="159" stroke="none" target-height="19.300003" target-width="44.649994" target-x="142.75" target-y="192.19998"></path><path d="M 150.32 209.51 C 150.17 209.51 150.03 209.44 149.93 209.32 C 148.66 207.68 148.77 202.32 148.78 201.67 C 148.79 201.40 149.01 201.19 149.28 201.19 L 149.28 201.19 C 149.55 201.20 149.77 201.43 149.76 201.70 C 149.76 203.26 149.81 207.56 150.70 208.70 C 150.87 208.92 150.83 209.24 150.61 209.41 C 150.53 209.47 150.42 209.51 150.32 209.51 Z" fill="#261d2a" fill-rule="nonzero" node-id="161" stroke="none" target-height="8.320206" target-width="2.208969" target-x="148.66" target-y="201.18979"></path><path d="M 161.66 209.41 C 161.56 209.41 161.47 209.38 161.39 209.33 C 159.39 208.02 159.85 200.70 159.96 199.25 C 159.98 198.97 160.22 198.77 160.50 198.78 C 160.77 198.80 160.98 199.04 160.96 199.32 C 160.71 202.69 160.86 207.77 161.96 208.50 C 162.19 208.65 162.25 208.96 162.10 209.19 C 162.00 209.33 161.83 209.42 161.66 209.41 Z" fill="#261d2a" fill-rule="nonzero" node-id="163" stroke="none" target-height="10.65126" target-width="2.8606262" target-x="159.39" target-y="198.76567"></path><path d="M 173.41 209.00 C 173.17 209.00 172.97 208.82 172.92 208.59 C 172.43 205.99 172.15 203.36 172.08 200.72 C 172.08 200.59 172.14 200.46 172.24 200.37 C 172.34 200.28 172.48 200.24 172.61 200.25 C 172.74 200.26 172.87 200.32 172.95 200.42 C 173.04 200.52 173.08 200.65 173.07 200.78 C 173.15 203.34 173.43 205.89 173.91 208.41 C 173.96 208.68 173.78 208.94 173.51 208.99 Z" fill="#261d2a" fill-rule="nonzero" node-id="165" stroke="none" target-height="8.764053" target-width="1.8786469" target-x="172.08" target-y="200.23595"></path><path d="M 181.70 208.66 C 181.64 208.67 181.57 208.67 181.51 208.66 C 181.26 208.55 181.14 208.26 181.24 208.00 C 181.24 208.00 183.24 203.13 182.47 200.09 C 182.40 199.81 182.57 199.54 182.85 199.47 C 183.13 199.40 183.40 199.57 183.47 199.85 C 184.33 203.20 182.29 208.18 182.21 208.39 C 182.11 208.58 181.91 208.68 181.70 208.66 Z" fill="#261d2a" fill-rule="nonzero" node-id="167" stroke="none" target-height="9.280334" target-width="3.1887665" target-x="181.14124" target-y="199.40373"></path><path d="M 131.49 228.83 C 131.49 228.83 90.00 230.00 88.42 227.74 C 86.84 225.48 91.00 211.82 94.09 214.00 C 97.18 216.18 98.84 222.17 98.84 222.17 C 98.84 222.17 105.32 210.67 106.84 212.89 C 108.36 215.11 112.33 220.29 112.33 220.29 C 112.33 220.29 113.59 211.20 116.69 214.13 C 118.63 215.98 120.45 217.95 122.14 220.03 C 122.14 220.03 125.66 210.87 127.25 213.85 C 128.84 216.83 131.49 228.83 131.49 228.83 Z" fill="#d5de8c" fill-rule="nonzero" node-id="169" stroke="none" target-height="19.330002" target-width="44.650017" target-x="86.83999" target-y="210.67"></path><path d="M 94.41 228.00 C 94.25 228.00 94.11 227.92 94.01 227.80 C 92.74 226.17 92.85 220.80 92.87 220.16 C 92.88 219.89 93.10 219.68 93.37 219.67 L 93.37 219.67 C 93.50 219.67 93.63 219.73 93.72 219.83 C 93.82 219.92 93.87 220.06 93.86 220.19 C 93.86 221.74 93.86 226.04 94.79 227.19 C 94.96 227.41 94.92 227.72 94.71 227.89 C 94.62 227.96 94.52 228.00 94.41 228.00 Z" fill="#261d2a" fill-rule="nonzero" node-id="171" stroke="none" target-height="8.330002" target-width="2.220192" target-x="92.73999" target-y="219.67"></path><path d="M 105.75 227.88 C 105.65 227.88 105.55 227.85 105.47 227.79 C 103.47 226.49 103.94 219.17 104.04 217.71 C 104.06 217.43 104.30 217.23 104.58 217.25 C 104.85 217.26 105.06 217.50 105.04 217.78 C 104.80 221.16 104.94 226.24 106.04 226.96 C 106.27 227.11 106.33 227.42 106.18 227.65 C 106.08 227.79 105.92 227.88 105.75 227.88 Z" fill="#261d2a" fill-rule="nonzero" node-id="173" stroke="none" target-height="10.655579" target-width="2.8606262" target-x="103.47" target-y="217.2257"></path><path d="M 117.50 227.45 C 117.24 227.46 117.02 227.26 117.00 227.00 C 116.50 224.40 116.22 221.77 116.15 219.13 C 116.17 218.85 116.41 218.65 116.69 218.67 C 116.96 218.68 117.17 218.92 117.15 219.20 C 117.23 221.76 117.50 224.31 117.98 226.82 C 118.01 226.95 117.98 227.09 117.90 227.19 C 117.83 227.30 117.71 227.38 117.58 227.40 Z" fill="#261d2a" fill-rule="nonzero" node-id="175" stroke="none" target-height="8.810501" target-width="1.8561783" target-x="116.15001" target-y="218.64566"></path><path d="M 125.79 227.12 C 125.73 227.13 125.66 227.13 125.60 227.12 C 125.48 227.07 125.38 226.97 125.33 226.85 C 125.28 226.73 125.28 226.59 125.33 226.47 C 125.33 226.42 127.33 221.59 126.55 218.56 C 126.52 218.43 126.54 218.29 126.60 218.18 C 126.67 218.07 126.78 217.98 126.91 217.95 C 127.18 217.89 127.45 218.05 127.52 218.31 C 128.37 221.67 126.34 226.64 126.25 226.85 C 126.16 227.02 125.98 227.13 125.79 227.12 Z" fill="#261d2a" fill-rule="nonzero" node-id="177" stroke="none" target-height="9.247955" target-width="3.093521" target-x="125.276474" target-y="217.88622"></path><path d="M 188.83 187.79 C 188.46 187.79 188.11 187.79 187.13 183.91 C 183.84 183.28 183.56 182.91 183.46 182.76 C 183.37 182.61 183.33 182.43 183.37 182.26 C 183.43 182.05 183.57 181.56 187.32 180.05 C 188.67 176.53 189.13 176.53 189.43 176.53 C 189.61 176.54 189.78 176.63 189.90 176.77 C 190.29 177.56 190.56 178.41 190.70 179.28 C 190.80 179.71 190.93 180.22 191.00 180.44 C 191.07 180.66 191.63 180.68 192.00 180.81 C 193.93 181.51 194.43 181.74 194.52 182.20 C 194.55 182.40 194.48 182.60 194.34 182.75 C 193.31 183.32 192.22 183.78 191.10 184.14 C 189.51 187.76 189.17 187.78 188.86 187.79 Z M 184.73 182.33 C 185.39 182.52 186.59 182.80 187.63 182.99 C 187.82 183.03 187.98 183.17 188.03 183.36 C 188.29 184.45 188.64 185.68 188.89 186.36 C 189.26 185.71 189.81 184.55 190.26 183.52 C 190.31 183.39 190.42 183.29 190.55 183.25 C 191.44 182.94 192.45 182.55 193.08 182.25 C 192.64 182.07 192.08 181.85 191.65 181.71 C 190.55 181.32 190.34 181.23 190.20 181.04 C 189.96 180.55 189.81 180.02 189.73 179.48 C 189.62 179.06 189.46 178.42 189.32 177.94 C 189.00 178.56 188.54 179.63 188.18 180.57 C 188.13 180.70 188.03 180.80 187.90 180.85 C 186.74 181.36 185.42 182.00 184.73 182.33 Z" fill="#261d2a" fill-rule="nonzero" node-id="179" stroke="none" target-height="11.2599945" target-width="11.216248" target-x="183.33319" target-y="176.53"></path><path d="M 56.56 165.89 C 56.19 165.89 55.84 165.89 54.86 162.01 C 51.58 161.38 51.30 161.01 51.19 160.86 C 51.10 160.71 51.06 160.53 51.10 160.36 C 51.16 160.15 51.30 159.66 55.10 158.14 C 56.45 154.63 56.90 154.63 57.21 154.63 C 57.39 154.65 57.56 154.73 57.68 154.87 C 58.06 155.67 58.32 156.51 58.47 157.38 C 58.57 157.80 58.70 158.31 58.77 158.54 C 58.84 158.77 59.40 158.78 59.77 158.91 C 61.71 159.60 62.20 159.84 62.30 160.30 C 62.32 160.50 62.25 160.70 62.11 160.84 C 61.08 161.42 60.00 161.89 58.87 162.24 C 57.28 165.86 56.94 165.88 56.64 165.89 Z M 52.46 160.43 C 53.12 160.62 54.32 160.89 55.36 161.09 C 55.55 161.13 55.71 161.27 55.76 161.46 C 56.03 162.54 56.38 163.78 56.63 164.46 C 56.99 163.81 57.54 162.65 57.99 161.62 C 58.04 161.49 58.15 161.39 58.28 161.35 C 59.18 161.03 60.19 160.65 60.81 160.35 C 60.37 160.17 59.81 159.95 59.38 159.81 C 58.28 159.42 58.08 159.33 57.93 159.14 C 57.70 158.65 57.54 158.12 57.46 157.58 C 57.35 157.16 57.20 156.52 57.06 156.04 C 56.63 156.89 56.25 157.77 55.91 158.66 C 55.86 158.79 55.76 158.90 55.63 158.95 C 54.47 159.46 53.15 160.05 52.46 160.43 Z" fill="#261d2a" fill-rule="nonzero" node-id="181" stroke="none" target-height="11.2599945" target-width="11.25742" target-x="51.063198" target-y="154.63"></path><path d="M 163.17 42.43 C 162.80 42.43 162.45 42.43 161.48 38.55 C 158.19 37.92 157.91 37.55 157.81 37.40 C 157.71 37.25 157.67 37.07 157.71 36.90 C 157.77 36.69 157.91 36.20 161.71 34.68 C 163.06 31.17 163.52 31.17 163.82 31.17 C 164.00 31.18 164.17 31.26 164.29 31.40 C 164.67 32.20 164.93 33.05 165.08 33.92 C 165.19 34.34 165.31 34.85 165.39 35.08 L 166.39 35.45 C 168.32 36.14 168.82 36.38 168.91 36.84 C 168.93 37.04 168.86 37.24 168.72 37.38 C 167.69 37.95 166.60 38.42 165.48 38.78 C 163.89 42.40 163.55 42.41 163.25 42.43 Z M 159.08 37.00 C 159.74 37.19 160.93 37.46 161.98 37.66 C 162.17 37.69 162.33 37.84 162.37 38.03 C 162.64 39.11 162.99 40.35 163.24 41.03 C 163.60 40.37 164.16 39.21 164.60 38.19 C 164.66 38.06 164.77 37.96 164.90 37.92 C 165.79 37.60 166.80 37.21 167.43 36.92 C 166.99 36.73 166.43 36.52 166.00 36.38 C 164.90 35.98 164.69 35.90 164.55 35.71 C 164.31 35.21 164.15 34.68 164.07 34.14 C 163.97 33.73 163.81 33.08 163.67 32.60 C 163.24 33.46 162.86 34.33 162.53 35.23 C 162.48 35.36 162.37 35.47 162.24 35.52 C 161.16 35.95 160.10 36.45 159.08 37.00 Z" fill="#261d2a" fill-rule="nonzero" node-id="183" stroke="none" target-height="11.26" target-width="11.260971" target-x="157.67264" target-y="31.17"></path><path d="M 36.62 69.18 L 36.62 69.18 C 34.68 69.17 33.11 67.60 33.12 65.66 C 33.13 63.72 34.70 62.15 36.64 62.16 C 38.58 62.17 40.15 63.74 40.14 65.68 C 40.13 67.62 38.55 69.19 36.61 69.18 Z M 36.62 63.18 C 35.67 63.10 34.76 63.55 34.26 64.36 C 33.76 65.17 33.76 66.19 34.26 67.00 C 34.76 67.81 35.67 68.26 36.62 68.18 L 36.62 68.18 C 37.91 68.06 38.91 66.98 38.91 65.68 C 38.91 64.38 37.91 63.30 36.62 63.18 Z" fill="#261d2a" fill-rule="nonzero" node-id="185" stroke="none" target-height="7.03104" target-width="7.0310135" target-x="33.114502" target-y="62.154507"></path><path d="M 193.94 56.00 L 193.94 56.00 C 192.00 55.99 190.44 54.41 190.45 52.47 C 190.46 50.54 192.04 48.97 193.97 48.98 C 195.91 48.99 197.48 50.56 197.47 52.50 C 197.47 53.44 197.09 54.33 196.42 54.99 C 195.76 55.65 194.86 56.01 193.92 56.00 Z M 193.94 50.00 C 192.68 50.16 191.74 51.23 191.74 52.50 C 191.74 53.77 192.68 54.84 193.94 55.00 L 193.94 55.00 C 195.20 54.84 196.14 53.77 196.14 52.50 C 196.14 51.23 195.20 50.16 193.94 50.00 Z" fill="#261d2a" fill-rule="nonzero" node-id="187" stroke="none" target-height="7.0379333" target-width="7.0346375" target-x="190.44086" target-y="48.97274"></path><path d="M 40.52 148.23 L 40.52 148.23 C 39.10 148.24 37.81 147.39 37.25 146.08 C 36.70 144.77 37.00 143.25 38.00 142.24 C 39.01 141.23 40.53 140.93 41.84 141.48 C 43.15 142.03 44.01 143.32 44.00 144.74 C 44.00 146.67 42.44 148.23 40.51 148.23 Z M 40.52 142.23 C 39.50 142.23 38.59 142.83 38.19 143.77 C 37.80 144.71 38.01 145.79 38.73 146.51 C 39.20 146.99 39.83 147.25 40.50 147.25 L 40.50 147.25 C 41.79 147.13 42.79 146.05 42.79 144.75 C 42.79 143.45 41.79 142.37 40.50 142.25 Z" fill="#261d2a" fill-rule="nonzero" node-id="189" stroke="none" target-height="7.309799" target-width="7.3056564" target-x="36.702408" target-y="140.93236"></path><path d="M 88.47 51.22 C 88.47 51.22 86.26 35.00 96.43 31.00 C 106.60 27.00 108.37 40.10 104.43 38.12 C 100.49 36.14 117.21 18.00 125.61 27.46 C 134.01 36.92 126.17 49.46 125.17 43.70 C 124.31 38.70 137.71 25.02 144.86 32.48 C 150.23 38.09 145.31 54.48 140.98 49.54 C 138.26 46.44 156.57 38.15 160.10 46.07 C 163.63 53.99 151.46 66.43 151.84 61.56 C 152.22 56.56 166.84 50.94 171.22 58.07 C 175.60 65.20 161.87 76.55 160.10 75.00 C 158.33 73.45 175.29 59.58 183.63 70.12 C 191.00 79.43 172.93 86.48 169.39 86.48 C 165.85 86.48 179.56 73.81 186.64 81.33 C 193.72 88.85 178.23 105.48 175.58 102.71 C 172.93 99.94 195.26 90.71 197.97 103.08 C 199.97 112.37 177.35 120.92 177.79 116.96 C 178.23 113.00 198.58 110.63 199.02 117.36 C 199.46 124.09 188.40 136.75 180.89 133.59 C 173.38 130.43 193.27 123.69 198.58 131.21 C 203.89 138.73 187.08 152.59 178.23 149.82 C 169.38 147.05 190.62 141.90 194.15 150.61 C 197.68 159.32 175.58 168.42 170.72 163.67 C 165.86 158.92 187.08 163.67 187.08 169.22 C 187.08 174.77 166.74 187.03 158.78 174.36 C 150.82 161.69 176.47 177.53 164.53 183.07 C 152.59 188.61 138.00 177.10 138.00 167.60" fill="#ffffff" fill-rule="nonzero" node-id="191" stroke="none" target-height="170.61" target-width="117.62998" target-x="86.26" target-y="18"></path><path d="M 157.84 185.00 C 153.88 184.93 150.03 183.72 146.74 181.53 C 141.12 177.95 137.49 172.48 137.49 167.60 C 137.50 167.33 137.72 167.11 137.99 167.10 C 138.27 167.10 138.49 167.32 138.49 167.60 C 138.49 172.08 142.03 177.33 147.28 180.69 C 152.93 184.30 159.14 184.99 164.28 182.59 C 165.42 182.15 166.37 181.32 166.95 180.24 C 163.36 179.79 160.17 177.71 158.32 174.60 C 156.76 172.11 156.32 170.47 156.98 169.60 C 157.29 169.19 157.98 168.80 159.43 169.23 C 162.68 170.23 167.92 174.64 168.21 178.57 C 168.23 178.83 168.23 179.08 168.21 179.34 C 170.27 179.43 172.32 179.17 174.29 178.58 C 180.90 176.68 186.56 171.82 186.56 169.19 C 186.56 167.57 184.16 165.81 181.01 164.46 C 176.57 165.76 172.28 165.89 170.35 164.00 C 169.54 163.21 169.29 162.53 169.60 162.00 C 170.47 160.47 175.40 161.63 176.88 162.00 C 178.31 162.38 179.71 162.86 181.08 163.42 C 183.74 162.60 186.28 161.40 188.60 159.86 C 190.67 158.47 195.30 154.80 193.67 150.78 C 193.01 149.28 191.80 148.10 190.29 147.46 C 186.18 149.99 181.54 151.36 178.06 150.28 C 177.43 150.08 175.48 149.47 175.58 148.17 C 175.71 146.42 179.52 145.68 180.68 145.50 C 183.89 144.96 187.19 145.24 190.26 146.33 C 192.76 144.73 194.96 142.70 196.75 140.33 C 198.20 138.33 200.31 134.55 198.15 131.48 C 197.12 130.13 195.66 129.18 194.01 128.77 C 192.93 129.94 191.73 130.99 190.43 131.92 C 186.89 134.44 183.43 135.19 180.67 134.03 C 179.30 133.45 178.67 132.70 178.67 131.80 C 178.76 130.40 180.74 129.01 183.98 128.09 C 187.11 127.17 190.43 127.02 193.63 127.67 C 196.63 124.29 198.63 120.21 198.48 117.37 C 198.34 115.37 195.81 113.97 191.63 113.66 C 186.63 117.00 179.82 119.26 177.88 118.13 C 177.43 117.89 177.19 117.39 177.26 116.89 C 177.58 113.94 185.26 112.46 190.39 112.60 L 191.39 112.60 C 191.64 112.44 191.88 112.27 192.12 112.09 C 194.47 110.37 198.31 106.92 197.48 103.09 C 196.74 99.73 194.48 97.78 190.65 97.30 C 188.37 97.07 186.08 97.24 183.86 97.81 C 183.10 98.74 182.29 99.62 181.42 100.45 C 178.59 103.14 176.27 104.08 175.21 102.97 C 174.80 102.54 174.73 101.89 175.04 101.39 C 175.80 99.88 179.26 97.98 183.27 96.95 C 187.14 92.10 189.91 85.47 186.27 81.59 C 185.52 80.77 184.58 80.15 183.53 79.78 C 179.58 84.16 171.77 87.00 169.39 87.00 C 168.94 87.02 168.53 86.75 168.39 86.32 C 168.03 84.95 171.15 82.14 174.16 80.48 C 177.50 78.65 180.63 78.07 183.24 78.74 C 183.65 78.20 184.00 77.62 184.27 77.00 C 185.33 74.81 184.98 72.58 183.27 70.37 C 179.47 65.58 173.95 66.37 170.27 67.60 C 168.93 69.57 167.32 71.35 165.50 72.88 C 164.50 73.74 161.04 76.46 159.77 75.31 C 159.51 75.05 159.42 74.66 159.53 74.31 C 159.98 72.61 164.38 68.73 169.64 66.80 C 171.49 63.93 172.34 60.80 170.80 58.34 C 169.04 55.52 165.19 54.51 160.51 55.65 C 160.13 55.74 159.76 55.85 159.39 55.96 C 158.38 57.93 157.07 59.73 155.52 61.30 C 154.45 62.36 152.96 63.52 151.98 63.07 C 151.65 62.91 151.26 62.52 151.34 61.53 C 151.54 58.83 155.03 56.40 158.68 55.15 C 160.11 52.22 160.83 48.92 159.68 46.28 C 158.53 43.64 155.87 43.28 153.81 43.28 L 153.76 43.28 C 151.52 43.33 149.30 43.77 147.21 44.59 C 147.11 45.03 146.99 45.45 146.86 45.86 C 145.97 48.78 144.61 50.64 143.13 50.95 C 142.17 51.12 141.20 50.74 140.63 49.95 C 140.19 49.43 140.11 48.70 140.43 48.10 C 141.07 46.68 143.43 45.05 146.35 43.88 C 147.15 39.93 146.81 35.29 144.52 32.88 C 141.59 29.81 137.78 30.77 135.10 32.13 C 133.18 33.13 131.43 34.42 129.91 35.97 C 130.22 38.65 129.73 41.37 128.51 43.78 C 127.75 45.14 126.85 45.85 126.04 45.71 C 125.57 45.63 124.95 45.24 124.71 43.83 C 124.35 41.74 126.16 38.47 128.87 35.63 C 128.49 32.73 127.23 30.02 125.27 27.85 C 123.00 25.28 119.94 24.64 116.17 25.92 C 112.19 27.49 108.71 30.10 106.09 33.48 C 107.09 35.29 107.18 37.39 106.33 38.38 C 105.80 38.90 105.00 39.03 104.33 38.71 C 103.65 38.39 103.26 37.68 103.33 36.94 C 103.56 35.66 104.10 34.45 104.91 33.42 C 104.86 33.35 104.82 33.27 104.76 33.20 C 103.76 31.79 101.38 29.70 96.65 31.54 C 86.92 35.26 88.94 51.00 89.00 51.15 C 89.02 51.28 88.99 51.41 88.91 51.52 C 88.83 51.62 88.71 51.69 88.58 51.71 C 88.45 51.73 88.31 51.70 88.20 51.61 C 88.10 51.53 88.03 51.41 88.01 51.28 C 87.68 48.37 87.74 45.43 88.18 42.53 C 89.18 36.39 91.95 32.25 96.29 30.53 C 101.77 28.40 104.56 31.14 105.54 32.53 C 108.23 29.11 111.79 26.48 115.86 24.93 C 119.99 23.53 123.50 24.29 126.03 27.14 C 127.94 29.28 129.24 31.90 129.76 34.72 C 131.22 33.31 132.87 32.13 134.66 31.19 C 138.87 29.07 142.66 29.41 145.26 32.19 C 147.86 34.97 148.15 39.45 147.45 43.45 C 149.49 42.72 151.65 42.33 153.82 42.30 C 157.20 42.30 159.55 43.57 160.60 45.93 C 161.83 48.69 161.28 51.93 160.01 54.81 L 160.31 54.73 C 165.44 53.48 169.69 54.65 171.69 57.87 C 173.33 60.52 172.69 63.59 171.11 66.39 C 171.57 66.26 172.03 66.14 172.49 66.05 C 177.31 65.05 181.31 66.37 184.06 69.84 C 186.06 72.37 186.45 74.96 185.21 77.52 C 184.93 78.07 184.60 78.60 184.21 79.08 C 185.27 79.51 186.22 80.17 187.00 81.00 C 190.81 85.05 188.49 91.64 184.79 96.71 C 186.76 96.29 188.79 96.19 190.79 96.40 C 194.99 96.93 197.65 99.21 198.47 102.98 C 199.36 106.98 196.00 110.53 192.94 112.81 C 197.00 113.34 199.37 114.93 199.53 117.33 C 199.73 120.33 197.77 124.50 194.76 128.00 C 196.45 128.49 197.94 129.52 198.99 130.93 C 200.86 133.58 200.36 137.14 197.59 140.93 C 195.85 143.23 193.73 145.23 191.32 146.83 C 192.81 147.60 193.98 148.87 194.63 150.41 C 195.97 153.72 193.99 157.47 189.19 160.70 C 187.09 162.08 184.82 163.20 182.44 164.02 C 185.20 165.36 187.59 167.14 187.59 169.21 C 187.59 172.61 181.27 177.64 174.59 179.56 C 172.46 180.20 170.24 180.47 168.02 180.36 C 167.41 181.82 166.23 182.96 164.75 183.51 C 162.58 184.51 160.22 185.02 157.84 185.00 Z M 158.32 170.00 C 158.13 169.98 157.95 170.04 157.81 170.17 C 157.72 170.29 157.34 171.06 159.20 174.03 C 160.92 176.91 163.87 178.82 167.20 179.21 C 167.22 179.01 167.22 178.80 167.20 178.60 C 166.95 175.18 162.14 171.04 159.13 170.15 C 158.87 170.06 158.60 170.01 158.32 170.00 Z M 171.89 162.16 C 170.98 162.16 170.55 162.31 170.49 162.42 C 170.43 162.53 170.49 162.66 171.07 163.25 C 172.48 164.63 175.78 164.72 179.51 163.81 C 178.31 163.37 177.08 163.01 175.84 162.72 C 174.55 162.40 173.22 162.22 171.89 162.20 Z M 184.04 146.16 C 182.98 146.16 181.91 146.25 180.86 146.41 C 178.01 146.86 176.63 147.72 176.60 148.17 C 176.60 148.34 176.94 148.79 178.38 149.24 C 181.43 150.24 185.47 149.08 189.17 146.93 C 187.50 146.42 185.75 146.18 184.00 146.23 Z M 189.97 128.16 C 188.05 128.17 186.14 128.44 184.29 128.96 C 181.35 129.80 179.76 131.01 179.71 131.77 C 179.71 132.34 180.56 132.77 181.08 133.02 C 183.51 134.02 186.63 133.33 189.87 131.02 C 190.94 130.24 191.95 129.37 192.87 128.42 C 191.92 128.27 190.96 128.21 190.00 128.24 Z M 189.76 113.51 C 183.82 113.51 178.46 115.35 178.29 116.91 C 178.26 117.02 178.32 117.13 178.42 117.18 C 179.63 117.88 185.03 116.43 189.91 113.51 Z M 182.14 98.27 C 178.97 99.27 176.47 100.77 175.94 101.82 C 175.80 102.10 175.89 102.19 175.94 102.25 C 176.43 102.77 178.28 102.04 180.74 99.71 C 181.21 99.34 181.68 98.86 182.14 98.35 Z M 169.32 86.00 L 169.39 86.00 C 171.51 86.00 178.62 83.45 182.39 79.60 C 180.14 79.32 177.87 79.71 175.84 80.72 C 171.93 82.46 169.47 85.21 169.32 86.00 Z M 168.56 68.36 C 163.56 70.61 160.39 74.04 160.48 74.71 C 160.80 74.90 163.11 73.92 165.99 71.18 C 166.92 70.29 167.77 69.33 168.56 68.31 Z M 158.00 56.48 C 154.86 57.77 152.51 59.83 152.37 61.60 C 152.37 62.01 152.43 62.14 152.44 62.15 C 152.61 62.23 153.44 61.95 154.86 60.58 C 156.08 59.35 157.13 57.97 158.00 56.48 Z M 146.00 45.00 C 143.58 46.06 141.74 47.41 141.28 48.41 C 141.11 48.64 141.11 48.96 141.28 49.19 C 141.62 49.70 142.21 49.98 142.82 49.91 C 143.90 49.68 145.04 48.00 145.82 45.51 Z M 129.00 36.90 C 126.78 39.40 125.43 42.05 125.70 43.61 C 125.83 44.35 126.06 44.61 126.22 44.67 C 126.38 44.73 127.02 44.36 127.64 43.24 C 128.64 41.28 129.11 39.10 129.00 36.90 Z M 105.40 34.36 C 104.83 35.13 104.45 36.02 104.29 36.96 C 104.29 37.46 104.44 37.62 104.61 37.71 C 105.25 38.02 105.46 37.77 105.54 37.71 C 106.00 37.19 106.00 35.81 105.40 34.36 Z" fill="#261d2a" fill-rule="nonzero" node-id="193" stroke="none" target-height="161.4864" target-width="113.94" target-x="86.92" target-y="23.530003"></path><path d="M 150.41 157.18 C 145.48 157.23 140.93 154.53 138.61 150.18 C 138.50 150.03 138.48 149.82 138.57 149.65 C 138.66 149.48 138.84 149.38 139.03 149.39 C 139.22 149.39 139.39 149.51 139.47 149.68 C 142.36 154.68 147.39 156.95 153.25 155.88 C 159.45 154.74 164.91 150.05 165.69 145.20 C 166.14 143.08 165.78 140.88 164.69 139.01 C 162.10 140.90 158.69 142.45 157.02 141.43 C 156.36 140.97 156.09 140.13 156.35 139.37 C 156.53 138.18 157.20 137.11 158.19 136.43 C 159.19 135.75 160.42 135.51 161.60 135.77 C 162.86 136.01 164.01 136.66 164.87 137.61 C 168.53 134.61 171.70 129.90 170.31 124.86 C 169.96 123.05 168.79 121.50 167.15 120.66 C 166.67 121.42 166.13 122.13 165.53 122.80 C 163.29 125.29 160.72 126.43 158.30 126.00 C 156.53 125.68 156.30 124.73 156.30 124.19 C 156.30 122.19 160.11 119.67 163.61 119.19 C 164.64 119.05 165.70 119.12 166.70 119.40 C 168.70 115.88 169.93 111.08 168.76 106.98 C 168.43 105.48 167.26 104.31 165.76 103.98 C 163.97 103.69 162.13 103.91 160.47 104.63 C 159.83 105.96 159.07 107.23 158.18 108.42 C 157.46 109.42 155.64 111.61 154.23 111.42 C 153.75 111.35 153.35 110.99 153.23 110.52 C 152.94 109.64 153.34 108.57 154.39 107.41 C 155.90 105.87 157.71 104.67 159.71 103.88 C 161.40 100.23 162.16 95.98 160.62 92.74 C 159.18 89.74 156.21 89.51 153.96 89.86 L 153.67 89.86 C 153.01 91.71 151.95 93.40 150.56 94.80 C 149.06 96.22 147.49 96.66 146.13 96.04 C 145.44 95.79 145.02 95.09 145.13 94.36 C 145.40 92.41 149.13 89.87 152.91 89.01 C 154.21 85.43 154.21 81.51 152.91 77.93 C 152.19 75.77 150.13 74.33 147.85 74.40 C 147.48 74.40 147.11 74.42 146.74 74.46 C 145.63 78.12 143.20 81.29 141.18 82.04 C 140.33 82.42 139.34 82.24 138.68 81.59 C 137.94 80.85 137.77 79.71 138.25 78.78 C 139.15 76.64 142.46 74.23 145.95 73.57 C 146.13 72.85 146.26 72.11 146.31 71.36 C 146.71 68.46 145.26 65.61 142.67 64.23 C 138.23 61.82 135.16 61.71 133.15 62.28 C 132.81 64.08 132.08 65.78 131.03 67.28 C 130.50 67.98 129.70 68.79 128.92 68.64 C 128.49 68.55 128.16 68.21 128.08 67.78 C 127.70 66.44 128.34 64.18 130.29 62.61 C 130.89 62.14 131.57 61.76 132.29 61.50 C 132.72 59.05 132.37 56.54 131.29 54.30 C 129.69 51.10 126.29 50.77 124.48 50.86 C 123.17 50.93 121.87 51.20 120.64 51.67 C 120.54 53.85 119.86 55.87 118.86 56.67 C 118.53 56.93 118.11 57.05 117.70 56.99 C 117.28 56.94 116.91 56.73 116.65 56.40 C 116.00 55.80 115.78 54.86 116.12 54.04 C 116.90 52.64 118.16 51.57 119.67 51.04 C 119.69 49.77 119.40 48.51 118.83 47.38 C 117.83 45.49 115.93 45.05 113.30 46.06 C 108.87 47.76 106.65 55.35 106.62 55.42 C 106.55 55.68 106.27 55.84 106.01 55.77 C 105.74 55.69 105.59 55.42 105.66 55.15 C 105.76 54.82 108.05 47.01 112.94 45.15 C 117.08 43.55 118.94 45.57 119.70 46.91 C 120.30 48.08 120.62 49.37 120.64 50.68 C 121.86 50.25 123.14 50.00 124.43 49.93 C 128.06 49.75 130.81 51.17 132.18 53.93 C 133.30 56.20 133.73 58.76 133.40 61.27 C 135.61 60.78 138.81 61.02 143.22 63.41 C 146.15 64.98 147.81 68.19 147.38 71.49 C 147.33 72.16 147.23 72.83 147.08 73.49 C 147.37 73.49 147.65 73.49 147.94 73.49 C 150.64 73.40 153.07 75.09 153.94 77.65 C 155.27 81.26 155.36 85.21 154.19 88.88 C 157.74 88.40 160.38 89.63 161.68 92.35 C 163.24 95.62 162.68 99.77 161.15 103.47 C 162.75 102.91 164.48 102.77 166.15 103.09 C 168.00 103.50 169.46 104.93 169.89 106.78 C 171.14 111.14 169.95 116.11 167.83 119.84 C 169.68 120.82 171.01 122.57 171.45 124.62 C 172.96 130.12 169.57 135.24 165.66 138.41 C 166.92 140.51 167.33 143.02 166.81 145.41 C 165.95 150.73 160.26 155.68 153.56 156.91 C 152.52 157.10 151.47 157.19 150.41 157.18 Z M 160.74 136.72 C 159.05 136.67 157.59 137.91 157.37 139.59 C 157.21 140.37 157.50 140.59 157.60 140.59 C 158.45 141.13 161.17 140.38 164.11 138.23 C 163.41 137.47 162.48 136.96 161.46 136.77 C 161.22 136.73 160.98 136.71 160.74 136.72 Z M 164.74 120.20 C 164.41 120.20 164.07 120.22 163.74 120.26 C 160.36 120.68 157.34 123.04 157.31 124.26 C 157.31 124.74 157.94 124.96 158.48 125.05 C 160.55 125.41 162.79 124.40 164.80 122.17 C 165.31 121.61 165.77 121.00 166.18 120.37 C 165.71 120.26 165.24 120.21 164.76 120.20 Z M 159.04 105.37 C 157.60 106.07 156.30 107.00 155.18 108.14 C 154.41 108.98 154.06 109.76 154.23 110.26 C 154.30 110.47 154.38 110.48 154.41 110.49 C 154.81 110.55 155.90 109.91 157.41 107.91 C 158.02 107.10 158.57 106.25 159.06 105.37 Z M 152.50 90.25 C 149.14 91.25 146.33 93.41 146.16 94.60 C 146.16 94.73 146.16 95.00 146.61 95.22 C 147.91 95.82 149.26 94.82 149.94 94.22 C 151.05 93.08 151.92 91.73 152.50 90.25 Z M 145.63 74.77 C 142.68 75.48 139.92 77.51 139.18 79.26 C 138.86 79.82 138.94 80.52 139.39 80.98 C 139.78 81.36 140.36 81.44 140.84 81.20 C 142.51 80.58 144.57 77.90 145.63 74.77 Z M 132.03 62.77 C 131.64 62.97 131.27 63.20 130.92 63.47 C 129.37 64.72 128.75 66.54 129.05 67.59 C 129.07 67.65 129.09 67.70 129.13 67.75 C 129.21 67.75 129.64 67.59 130.33 66.63 C 131.11 65.47 131.68 64.17 132.00 62.81 Z M 119.56 52.24 C 118.48 52.68 117.58 53.47 117.00 54.48 C 116.80 54.93 116.92 55.46 117.30 55.78 C 117.73 56.21 117.99 56.11 118.21 55.95 C 118.87 55.45 119.40 54.00 119.56 52.24 Z" fill="#261d2a" fill-rule="nonzero" node-id="195" stroke="none" target-height="113.68237" target-width="67.370766" target-x="105.58924" target-y="43.55"></path><path d="M 47.35 108.30 C 47.35 108.30 81.09 109.30 92.77 111.65 C 111.05 115.38 82.17 158.74 54.50 130.14 C 38.90 114.00 47.35 108.30 47.35 108.30 Z" fill="#edd674" fill-rule="nonzero" node-id="197" stroke="none" target-height="50.440002" target-width="72.15" target-x="38.9" target-y="108.3"></path><path d="M 78.18 70.14 C 78.18 70.14 81.13 45.14 96.80 49.23 C 104.80 51.29 101.35 61.91 101.35 61.91 C 101.35 61.91 118.19 51.40 127.08 61.00 C 139.24 74.10 127.43 105.24 101.44 107.85 C 64.21 111.59 54.08 67.47 62.59 68.31 C 71.10 69.15 78.18 70.14 78.18 70.14 Z" fill="#edd674" fill-rule="nonzero" node-id="199" stroke="none" target-height="66.450005" target-width="85.16" target-x="54.08" target-y="45.14"></path><path d="M 102.00 98.72 C 102.00 98.72 54.14 142.83 78.46 174.64 C 89.92 189.64 139.40 178.55 144.46 174.64 C 172.05 153.12 129.90 98.23 123.55 97.25 C 117.20 96.27 102.00 98.72 102.00 98.72 Z" fill="#edd674" fill-rule="nonzero" node-id="201" stroke="none" target-height="93.37002" target-width="117.91" target-x="54.14" target-y="96.27"></path><path d="M 68.90 69.16 C 68.90 69.16 65.44 77.48 61.62 78.87 C 57.80 80.26 58.85 68.30 60.24 67.78 C 61.63 67.26 66.13 66.91 68.90 69.16 Z" fill="#261d2a" fill-rule="nonzero" node-id="203" stroke="none" target-height="13.349998" target-width="11.100002" target-x="57.8" target-y="66.91"></path><path d="M 88.88 74.55 C 88.56 74.54 88.26 74.44 88.01 74.24 C 87.29 73.68 87.64 70.60 89.01 65.05 C 89.08 64.79 89.35 64.63 89.62 64.69 C 89.75 64.72 89.86 64.81 89.93 64.92 C 89.99 65.03 90.01 65.17 89.98 65.30 C 89.10 68.77 88.34 72.90 88.64 73.51 C 88.76 73.55 88.88 73.55 89.00 73.51 C 90.38 73.09 92.40 68.51 93.35 65.69 C 93.45 65.43 93.74 65.30 94.00 65.40 C 94.26 65.49 94.40 65.77 94.31 66.03 C 94.04 66.82 91.62 73.78 89.31 74.48 C 89.17 74.53 89.03 74.55 88.88 74.55 Z" fill="#261d2a" fill-rule="nonzero" node-id="205" stroke="none" target-height="9.923897" target-width="7.1062927" target-x="87.29" target-y="64.626205"></path><path d="M 101.36 78.00 C 101.04 78.00 100.73 77.89 100.48 77.69 C 99.76 77.14 100.11 74.05 101.48 68.51 C 101.51 68.38 101.59 68.27 101.70 68.20 C 101.82 68.13 101.95 68.11 102.08 68.15 C 102.35 68.22 102.51 68.49 102.45 68.76 C 101.56 72.23 100.80 76.35 101.11 76.96 C 101.22 77.01 101.36 77.01 101.47 76.96 C 102.85 76.54 104.87 71.96 105.82 69.15 C 105.91 68.87 106.20 68.72 106.48 68.81 C 106.76 68.90 106.91 69.19 106.82 69.47 C 106.55 70.26 104.13 77.22 101.82 77.92 C 101.67 77.97 101.52 77.99 101.36 78.00 Z" fill="#261d2a" fill-rule="nonzero" node-id="207" stroke="none" target-height="9.886147" target-width="7.148361" target-x="99.76" target-y="68.11385"></path><path d="M 75.93 96.17 C 74.03 96.17 71.93 91.27 71.04 89.10 C 70.99 88.98 70.99 88.84 71.05 88.72 C 71.10 88.60 71.20 88.50 71.32 88.45 C 71.58 88.35 71.86 88.48 71.97 88.73 C 73.37 92.31 75.21 95.33 75.97 95.17 C 76.09 95.17 77.13 94.71 76.91 87.17 C 76.91 86.89 77.13 86.67 77.41 86.67 C 77.69 86.67 77.91 86.89 77.91 87.17 C 78.13 94.72 77.15 95.95 76.17 96.17 Z" fill="#261d2a" fill-rule="nonzero" node-id="209" stroke="none" target-height="9.499992" target-width="7.139183" target-x="70.990814" target-y="86.67"></path><path d="M 118.39 105.69 C 118.39 105.69 147.39 104.93 150.03 114.21 C 152.67 123.49 143.78 148.32 116.12 118.95 C 116.12 119.00 116.88 107.39 118.39 105.69 Z" fill="#edd674" fill-rule="nonzero" node-id="211" stroke="none" target-height="43.390007" target-width="36.549995" target-x="116.12" target-y="104.93"></path><path d="M 135.42 133.52 C 125.31 133.52 118.80 123.12 118.72 123.00 C 118.58 122.76 118.66 122.46 118.89 122.31 C 119.00 122.24 119.14 122.22 119.27 122.25 C 119.39 122.28 119.50 122.37 119.57 122.48 C 121.10 124.77 122.96 126.82 125.10 128.55 C 129.70 132.23 134.54 133.36 139.47 131.92 C 139.74 131.84 140.01 131.99 140.09 132.26 C 140.13 132.39 140.12 132.53 140.05 132.64 C 139.99 132.76 139.88 132.85 139.75 132.88 C 138.34 133.30 136.89 133.51 135.42 133.52 Z" fill="#261d2a" fill-rule="nonzero" node-id="213" stroke="none" target-height="11.300133" target-width="21.549278" target-x="118.58073" target-y="122.21987"></path><path d="M 145.79 159.93 C 145.79 159.93 144.39 199.44 141.58 200.69 C 138.77 201.94 127.08 206.10 122.40 200.28 C 117.72 194.46 112.11 164.09 120.06 163.28 C 128.01 162.47 142.05 154.94 145.79 159.93 Z" fill="#edd674" fill-rule="nonzero" node-id="215" stroke="none" target-height="51.160004" target-width="33.679993" target-x="112.11" target-y="154.94"></path><path d="M 105.07 161.81 C 105.07 161.81 101.25 201.17 98.38 202.24 C 95.51 203.31 83.57 206.76 79.26 200.66 C 74.95 194.56 71.20 163.91 79.18 163.56 C 87.16 163.21 101.64 156.60 105.07 161.81 Z" fill="#edd674" fill-rule="nonzero" node-id="217" stroke="none" target-height="50.15999" target-width="33.870003" target-x="71.2" target-y="156.6"></path><path d="M 99.56 108.52 C 97.36 108.53 95.17 108.25 93.05 107.68 C 92.92 107.64 92.82 107.56 92.75 107.44 C 92.69 107.32 92.68 107.19 92.72 107.06 C 92.75 106.93 92.84 106.82 92.96 106.76 C 93.08 106.70 93.21 106.69 93.34 106.73 C 93.48 106.73 106.87 110.73 114.51 100.43 C 114.68 100.21 114.99 100.17 115.21 100.33 C 115.32 100.41 115.39 100.53 115.41 100.66 C 115.43 100.79 115.40 100.92 115.32 101.03 C 110.78 107.17 104.35 108.52 99.56 108.52 Z" fill="#261d2a" fill-rule="nonzero" node-id="219" stroke="none" target-height="10.560089" target-width="22.751389" target-x="92.67966" target-y="100.169914"></path><path d="M 144.85 148.00 C 144.75 148.00 144.65 147.97 144.57 147.91 C 144.35 147.75 144.29 147.45 144.44 147.22 C 144.82 146.66 144.26 145.15 143.74 144.22 C 143.63 144.07 143.61 143.86 143.70 143.69 C 143.79 143.52 143.97 143.42 144.16 143.43 C 144.35 143.43 144.52 143.55 144.60 143.72 C 144.76 144.00 146.15 146.46 145.27 147.72 C 145.19 147.88 145.03 147.99 144.85 148.00 Z" fill="#261d2a" fill-rule="nonzero" node-id="221" stroke="none" target-height="4.5797577" target-width="2.5368347" target-x="143.61316" target-y="143.42024"></path><path d="M 145.94 143.18 C 145.76 143.17 145.59 143.07 145.50 142.91 C 145.42 142.74 145.43 142.54 145.53 142.39 C 145.91 141.84 145.35 140.33 144.83 139.39 C 144.72 139.24 144.70 139.03 144.79 138.86 C 144.88 138.69 145.06 138.59 145.25 138.60 C 145.44 138.60 145.61 138.72 145.69 138.89 C 145.85 139.16 147.25 141.63 146.36 142.89 C 146.28 143.05 146.12 143.16 145.94 143.18 Z" fill="#261d2a" fill-rule="nonzero" node-id="223" stroke="none" target-height="4.589752" target-width="2.5468445" target-x="144.70316" target-y="138.59024"></path><path d="M 148.00 153.78 C 147.90 153.78 147.80 153.75 147.72 153.69 C 147.61 153.62 147.53 153.50 147.51 153.37 C 147.48 153.24 147.51 153.11 147.59 153.00 C 147.97 152.44 147.41 150.93 146.88 150.00 C 146.75 149.76 146.83 149.46 147.06 149.32 C 147.30 149.18 147.61 149.26 147.75 149.50 C 147.91 149.78 149.30 152.24 148.41 153.50 C 148.33 153.66 148.18 153.77 148.00 153.78 Z" fill="#261d2a" fill-rule="nonzero" node-id="225" stroke="none" target-height="4.598221" target-width="2.5509186" target-x="146.74908" target-y="149.18251"></path><path d="M 143.61 156.74 C 143.51 156.74 143.41 156.71 143.32 156.65 C 143.10 156.49 143.04 156.19 143.19 155.96 C 143.61 155.35 142.90 153.70 142.49 152.96 C 142.40 152.81 142.39 152.61 142.48 152.46 C 142.57 152.30 142.73 152.20 142.91 152.20 C 143.09 152.20 143.26 152.29 143.35 152.45 C 143.51 152.73 144.91 155.19 144.02 156.45 C 143.95 156.61 143.79 156.73 143.61 156.74 Z" fill="#261d2a" fill-rule="nonzero" node-id="227" stroke="none" target-height="4.543518" target-width="2.519333" target-x="142.39067" target-y="152.19649"></path><path d="M 147.82 160.00 C 147.72 160.00 147.62 159.98 147.53 159.92 C 147.31 159.76 147.25 159.45 147.40 159.22 C 147.82 158.61 147.11 156.96 146.70 156.22 C 146.59 156.07 146.57 155.86 146.66 155.69 C 146.75 155.52 146.93 155.42 147.12 155.43 C 147.31 155.43 147.48 155.55 147.56 155.72 C 147.72 155.99 149.12 158.46 148.23 159.72 C 148.15 159.88 148.00 159.98 147.82 160.00 Z" fill="#261d2a" fill-rule="nonzero" node-id="229" stroke="none" target-height="4.582855" target-width="2.5468445" target-x="146.57315" target-y="155.42024"></path><path d="M 142.05 150.00 C 141.95 150.00 141.85 149.97 141.76 149.91 C 141.54 149.75 141.48 149.44 141.64 149.21 C 142.02 148.66 141.45 147.15 140.93 146.21 C 140.82 145.98 140.91 145.70 141.13 145.57 C 141.36 145.44 141.64 145.50 141.79 145.71 C 141.96 145.98 143.35 148.45 142.46 149.71 C 142.39 149.87 142.23 149.98 142.05 150.00 Z" fill="#261d2a" fill-rule="nonzero" node-id="231" stroke="none" target-height="4.5570374" target-width="2.5256042" target-x="140.8244" target-y="145.44296"></path><path d="M 142.05 142.55 C 141.95 142.55 141.85 142.52 141.76 142.46 C 141.65 142.39 141.58 142.27 141.55 142.14 C 141.53 142.01 141.56 141.88 141.64 141.77 C 142.02 141.22 141.45 139.70 140.93 138.77 C 140.79 138.53 140.87 138.22 141.11 138.08 C 141.22 138.01 141.36 137.99 141.49 138.03 C 141.62 138.06 141.73 138.14 141.79 138.26 C 141.96 138.54 143.35 141.00 142.46 142.26 C 142.39 142.42 142.23 142.54 142.05 142.55 Z" fill="#261d2a" fill-rule="nonzero" node-id="233" stroke="none" target-height="4.557785" target-width="2.557495" target-x="140.79251" target-y="137.99222"></path><path d="M 70.70 116.21 C 70.49 116.21 70.30 116.08 70.23 115.89 C 70.18 115.77 70.19 115.63 70.24 115.51 C 70.29 115.39 70.40 115.29 70.52 115.25 C 70.82 115.13 73.52 114.16 74.60 115.25 C 74.69 115.34 74.75 115.47 74.75 115.61 C 74.75 115.74 74.69 115.87 74.60 115.96 C 74.51 116.05 74.38 116.11 74.25 116.11 C 74.11 116.11 73.98 116.05 73.89 115.96 C 73.36 115.45 71.62 115.89 70.89 116.18 C 70.83 116.20 70.76 116.21 70.70 116.21 Z" fill="#261d2a" fill-rule="nonzero" node-id="235" stroke="none" target-height="2.0531998" target-width="4.5662537" target-x="70.18165" target-y="114.16"></path><path d="M 66.10 114.35 C 65.89 114.35 65.71 114.22 65.64 114.03 C 65.59 113.91 65.59 113.77 65.65 113.65 C 65.70 113.53 65.80 113.44 65.92 113.39 C 66.22 113.27 68.92 112.30 70.01 113.39 C 70.10 113.48 70.16 113.61 70.16 113.74 C 70.16 113.88 70.10 114.01 70.01 114.10 C 69.92 114.20 69.79 114.25 69.66 114.25 C 69.53 114.25 69.40 114.20 69.31 114.10 C 68.77 113.59 67.03 114.03 66.31 114.32 C 66.24 114.34 66.17 114.35 66.10 114.35 Z" fill="#261d2a" fill-rule="nonzero" node-id="237" stroke="none" target-height="2.0532227" target-width="4.5667496" target-x="65.59115" target-y="112.3"></path><path d="M 76.89 114.07 C 76.68 114.07 76.50 113.94 76.43 113.75 C 76.33 113.49 76.46 113.21 76.71 113.10 C 77.01 112.99 79.71 112.01 80.80 113.10 C 80.89 113.19 80.95 113.32 80.95 113.45 C 80.95 113.59 80.89 113.72 80.80 113.81 C 80.61 114.00 80.29 114.00 80.10 113.81 C 79.57 113.30 77.82 113.73 77.10 114.03 C 77.03 114.06 76.96 114.07 76.89 114.07 Z" fill="#261d2a" fill-rule="nonzero" node-id="239" stroke="none" target-height="2.0631866" target-width="4.6145554" target-x="76.33334" target-y="112.01"></path><path d="M 79.11 118.86 C 78.83 118.91 78.57 118.73 78.52 118.45 C 78.47 118.17 78.65 117.91 78.93 117.86 C 79.23 117.75 81.93 116.77 83.02 117.86 C 83.11 117.95 83.17 118.08 83.17 118.21 C 83.17 118.34 83.11 118.47 83.02 118.56 C 82.93 118.65 82.80 118.71 82.67 118.71 C 82.53 118.71 82.40 118.65 82.31 118.56 C 81.78 118.05 80.04 118.48 79.31 118.77 C 79.25 118.82 79.18 118.85 79.11 118.86 Z" fill="#261d2a" fill-rule="nonzero" node-id="241" stroke="none" target-height="2.1397095" target-width="4.6967773" target-x="78.47029" target-y="116.77"></path><path d="M 83.00 115.23 C 82.79 115.23 82.61 115.10 82.54 114.91 C 82.49 114.79 82.49 114.65 82.55 114.53 C 82.60 114.41 82.70 114.32 82.82 114.27 C 83.12 114.15 85.82 113.18 86.91 114.27 C 87.00 114.36 87.06 114.49 87.06 114.62 C 87.06 114.76 87.00 114.89 86.91 114.98 C 86.82 115.08 86.69 115.13 86.56 115.13 C 86.43 115.13 86.30 115.08 86.21 114.98 C 85.68 114.47 83.93 114.91 83.21 115.20 C 83.14 115.22 83.07 115.23 83.00 115.23 Z" fill="#261d2a" fill-rule="nonzero" node-id="243" stroke="none" target-height="2.053238" target-width="4.5667496" target-x="82.49115" target-y="113.17999"></path><path d="M 72.24 119.31 C 72.03 119.31 71.85 119.18 71.77 118.99 C 71.68 118.73 71.81 118.45 72.06 118.34 C 72.36 118.23 75.06 117.26 76.15 118.34 C 76.24 118.43 76.30 118.56 76.30 118.70 C 76.30 118.83 76.24 118.96 76.15 119.05 C 76.06 119.14 75.93 119.20 75.80 119.20 C 75.67 119.20 75.54 119.14 75.45 119.05 C 74.91 118.54 73.17 118.98 72.45 119.27 C 72.38 119.30 72.31 119.31 72.24 119.31 Z" fill="#261d2a" fill-rule="nonzero" node-id="245" stroke="none" target-height="2.050026" target-width="4.6178894" target-x="71.68001" target-y="117.26"></path><path d="M 64.86 118.10 C 64.65 118.10 64.46 117.97 64.39 117.78 C 64.34 117.66 64.34 117.52 64.40 117.39 C 64.45 117.27 64.55 117.18 64.68 117.13 C 64.98 117.02 67.63 116.04 68.76 117.13 C 68.85 117.22 68.91 117.35 68.91 117.48 C 68.91 117.61 68.85 117.74 68.76 117.83 C 68.67 117.92 68.54 117.98 68.41 117.98 C 68.27 117.98 68.14 117.92 68.05 117.83 C 67.56 117.37 65.98 117.68 65.05 118.05 C 64.99 118.08 64.93 118.10 64.86 118.10 Z" fill="#261d2a" fill-rule="nonzero" node-id="247" stroke="none" target-height="2.0614624" target-width="4.565735" target-x="64.34134" target-y="116.04"></path><path d="M 130.80 209.77 C 130.60 209.77 130.42 209.70 130.27 209.57 C 129.72 209.06 129.97 207.33 130.53 205.33 C 129.58 206.85 128.42 208.24 127.10 209.45 C 126.81 209.72 126.38 209.77 126.04 209.56 C 125.20 209.03 125.36 206.34 125.78 203.56 C 124.78 204.77 123.46 206.12 122.41 206.12 C 122.11 206.13 121.82 205.97 121.67 205.71 C 121.05 204.64 122.87 201.12 124.01 199.12 C 124.07 199.00 124.18 198.92 124.31 198.88 C 124.44 198.84 124.58 198.86 124.69 198.93 C 124.93 199.07 125.01 199.37 124.88 199.61 C 123.52 202.01 122.49 204.42 122.52 205.11 C 123.43 204.93 125.24 202.77 126.23 201.28 C 126.36 201.09 126.61 201.01 126.83 201.10 C 127.05 201.19 127.18 201.43 127.13 201.66 C 126.59 204.47 126.25 207.76 126.53 208.57 C 128.40 207.11 131.76 201.57 131.80 201.47 C 131.94 201.27 132.21 201.20 132.43 201.30 C 132.65 201.41 132.76 201.66 132.69 201.90 C 131.69 204.59 130.82 207.78 130.93 208.67 C 132.67 207.79 136.26 204.49 135.93 201.61 C 135.90 201.34 136.10 201.09 136.37 201.06 C 136.50 201.04 136.64 201.08 136.74 201.17 C 136.85 201.25 136.91 201.38 136.92 201.51 C 137.28 204.92 133.34 208.66 131.22 209.63 C 131.09 209.71 130.95 209.76 130.80 209.77 Z" fill="#261d2a" fill-rule="nonzero" node-id="249" stroke="none" target-height="10.92569" target-width="16.229996" target-x="121.05" target-y="198.84451"></path><path d="M 86.33 209.00 C 86.11 209.00 85.91 208.92 85.76 208.76 C 85.24 208.21 85.60 206.50 86.28 204.54 C 85.24 206.00 84.00 207.32 82.61 208.45 C 82.30 208.70 81.87 208.72 81.54 208.50 C 80.73 207.91 81.06 205.24 81.65 202.50 C 80.59 203.64 79.18 204.93 78.12 204.85 C 77.82 204.83 77.55 204.66 77.41 204.40 C 76.86 203.29 78.89 199.89 80.14 197.95 C 80.30 197.72 80.61 197.66 80.84 197.81 C 81.07 197.96 81.13 198.27 80.98 198.50 C 79.48 200.81 78.31 203.16 78.30 203.85 C 79.22 203.73 81.12 201.72 82.23 200.25 C 82.37 200.06 82.63 200.00 82.84 200.11 C 83.06 200.21 83.17 200.45 83.11 200.68 C 82.40 203.46 81.85 206.68 82.11 207.55 C 84.11 206.21 87.76 200.84 87.79 200.78 C 87.94 200.57 88.22 200.51 88.45 200.63 C 88.68 200.75 88.77 201.03 88.66 201.27 C 87.52 203.89 86.44 207.02 86.50 207.91 C 88.28 207.14 92.07 204.07 91.94 201.18 C 91.93 200.90 92.14 200.67 92.42 200.65 C 92.69 200.66 92.91 200.86 92.94 201.13 C 93.09 204.56 88.94 208.06 86.75 208.89 C 86.62 208.96 86.48 208.99 86.33 209.00 Z" fill="#261d2a" fill-rule="nonzero" node-id="251" stroke="none" target-height="11.346054" target-width="16.229996" target-x="76.86" target-y="197.65837"></path><path d="M 109.00 182.49 C 100.49 182.49 94.60 179.76 91.00 177.18 C 88.14 175.25 85.75 172.70 84.00 169.73 C 83.87 169.48 83.97 169.18 84.22 169.06 C 84.46 168.93 84.76 169.02 84.89 169.27 C 84.97 169.42 92.97 184.27 115.33 181.01 C 115.60 180.97 115.85 181.16 115.90 181.43 C 115.92 181.56 115.89 181.70 115.80 181.81 C 115.72 181.91 115.60 181.98 115.47 182.00 C 113.33 182.32 111.17 182.49 109.00 182.49 Z" fill="#261d2a" fill-rule="nonzero" node-id="253" stroke="none" target-height="15.342026" target-width="32.046944" target-x="83.87298" target-y="168.92798"></path><path d="M 50.42 122.56 C 49.22 122.66 48.03 122.30 47.08 121.56 C 44.37 118.99 45.75 114.47 45.81 114.27 C 45.90 114.01 46.18 113.86 46.44 113.95 C 46.70 114.03 46.85 114.31 46.77 114.57 C 46.77 114.57 45.51 118.70 47.77 120.84 C 48.97 121.99 52.35 121.64 54.91 120.72 C 56.78 120.05 57.42 119.38 57.44 119.22 C 56.85 118.46 52.80 118.54 49.38 119.06 C 49.11 119.10 48.86 118.93 48.81 118.66 C 48.76 118.40 48.93 118.14 49.19 118.08 C 52.06 117.42 56.30 116.08 56.75 115.08 C 56.35 114.16 52.18 114.65 48.55 115.63 C 48.29 115.70 48.01 115.54 47.94 115.28 C 47.87 115.01 48.03 114.74 48.29 114.66 C 52.41 113.54 55.55 112.02 55.50 111.47 C 55.20 110.82 51.36 111.37 47.50 112.61 C 47.24 112.70 46.96 112.55 46.87 112.29 C 46.83 112.16 46.84 112.03 46.90 111.91 C 46.96 111.79 47.06 111.70 47.19 111.66 C 49.70 110.86 55.61 109.21 56.46 111.05 C 56.60 111.33 56.60 111.66 56.46 111.94 C 55.92 112.69 55.17 113.27 54.30 113.60 C 55.92 113.51 57.30 113.71 57.73 114.60 C 57.89 114.91 57.89 115.29 57.73 115.60 C 57.36 116.38 55.89 117.12 54.28 117.72 L 54.28 117.72 C 56.05 117.72 57.73 117.94 58.28 118.72 C 58.45 118.96 58.77 119.58 57.88 120.37 C 56.66 121.32 53.24 122.56 50.42 122.56 Z" fill="#261d2a" fill-rule="nonzero" node-id="255" stroke="none" target-height="13.448067" target-width="14.400005" target-x="44.369995" target-y="109.21"></path><path d="M 49.81 139.13 C 49.70 139.13 49.60 139.10 49.51 139.03 C 49.40 138.95 49.33 138.83 49.31 138.70 C 49.29 138.57 49.32 138.44 49.40 138.33 C 59.65 124.66 47.59 95.93 47.46 95.65 C 47.35 95.40 47.47 95.10 47.72 94.99 C 47.97 94.88 48.27 95.00 48.38 95.25 C 50.52 100.56 52.17 106.06 53.31 111.67 C 54.96 120.02 55.76 131.52 50.21 138.93 C 50.11 139.05 49.97 139.13 49.81 139.13 Z" fill="#261d2a" fill-rule="nonzero" node-id="257" stroke="none" target-height="44.252785" target-width="12.300457" target-x="47.349545" target-y="94.87954"></path><path d="M 82.16 136.29 C 82.16 136.29 120.62 135.72 120.81 136.29 C 121.00 136.86 120.43 164.14 119.81 164.51 C 119.19 164.88 86.81 166.60 85.14 166.03 C 83.47 165.46 80.45 137.61 82.16 136.29 Z" fill="#d17d92" fill-rule="nonzero" node-id="259" stroke="none" target-height="30.880005" target-width="40.550003" target-x="80.45" target-y="135.72"></path><path d="M 84.43 140.08 C 84.43 140.08 85.19 117.34 96.94 114.69 C 108.69 112.04 118.16 120.75 117.00 138.00 L 110.18 138.57 C 110.18 138.57 112.64 120.95 101.27 119.44 C 92.76 118.30 89.72 139.14 89.72 139.14 Z" fill="#d17d92" fill-rule="nonzero" node-id="261" stroke="none" target-height="28.04" target-width="33.730003" target-x="84.43" target-y="112.04"></path><path d="M 109.19 124.05 C 107.75 124.13 106.31 123.82 105.03 123.14 C 104.68 122.93 104.49 122.54 104.55 122.14 C 104.64 121.62 105.27 121.14 106.17 120.59 C 105.57 120.64 104.97 120.58 104.39 120.41 C 104.04 120.32 103.79 120.01 103.77 119.65 C 103.77 119.00 104.98 118.09 107.39 116.94 C 105.32 117.24 103.39 117.31 102.85 116.66 C 102.68 116.46 102.62 116.18 102.69 115.93 C 103.06 114.50 108.50 112.24 110.82 111.33 C 110.94 111.28 111.08 111.28 111.20 111.33 C 111.33 111.38 111.42 111.48 111.47 111.61 C 111.52 111.73 111.52 111.87 111.46 112.00 C 111.41 112.12 111.31 112.21 111.18 112.26 C 107.89 113.55 104.24 115.33 103.71 116.08 C 104.49 116.43 108.24 115.92 112.20 114.91 C 112.46 114.84 112.73 114.98 112.81 115.24 C 112.90 115.49 112.76 115.77 112.51 115.86 C 109.32 117.09 105.74 118.74 104.92 119.51 C 106.20 119.81 108.83 119.27 110.86 118.74 C 111.66 118.49 112.40 118.28 112.96 118.13 C 113.24 118.05 113.52 118.21 113.60 118.49 C 113.68 118.77 113.52 119.05 113.24 119.13 C 113.02 119.20 112.24 119.45 111.18 119.73 C 108.12 120.73 105.67 121.81 105.53 122.35 L 105.61 122.42 C 106.70 123.21 111.50 123.73 114.03 121.84 C 115.56 120.71 115.91 118.93 115.03 116.54 C 114.97 116.29 115.10 116.03 115.35 115.94 C 115.59 115.86 115.86 115.97 115.97 116.21 C 117.21 119.76 115.90 121.67 114.58 122.64 C 112.97 123.65 111.09 124.14 109.19 124.05 Z" fill="#261d2a" fill-rule="nonzero" node-id="263" stroke="none" target-height="12.86071" target-width="14.588814" target-x="102.621185" target-y="111.27794"></path><path d="M 122.82 85.13 C 122.54 85.15 122.30 84.95 122.28 84.67 C 122.25 84.40 122.45 84.15 122.73 84.13 C 123.39 84.01 124.06 82.54 124.32 81.53 C 124.39 81.25 124.67 81.09 124.95 81.16 C 125.23 81.23 125.39 81.51 125.32 81.79 C 125.24 82.10 124.48 84.79 122.94 85.11 Z" fill="#261d2a" fill-rule="nonzero" node-id="265" stroke="none" target-height="4.0666504" target-width="3.141655" target-x="122.250145" target-y="81.0882"></path><path d="M 127.00 82.48 C 126.76 82.48 126.55 82.31 126.51 82.07 C 126.48 81.94 126.51 81.81 126.58 81.70 C 126.65 81.59 126.77 81.51 126.90 81.49 C 127.56 81.37 128.23 79.90 128.50 78.89 C 128.57 78.61 128.85 78.45 129.13 78.52 C 129.41 78.59 129.57 78.87 129.50 79.15 C 129.42 79.46 128.67 82.15 127.13 82.47 Z" fill="#261d2a" fill-rule="nonzero" node-id="267" stroke="none" target-height="4.035042" target-width="3.0911255" target-x="126.48067" target-y="78.448204"></path><path d="M 121.00 91.42 C 120.76 91.42 120.56 91.24 120.51 91.01 C 120.46 90.74 120.64 90.48 120.91 90.43 C 121.57 90.30 122.24 88.84 122.50 87.83 C 122.57 87.55 122.85 87.39 123.12 87.46 C 123.40 87.52 123.57 87.80 123.50 88.08 C 123.42 88.39 122.67 91.08 121.12 91.41 Z" fill="#261d2a" fill-rule="nonzero" node-id="269" stroke="none" target-height="4.0340424" target-width="3.1076965" target-x="120.46134" target-y="87.385956"></path><path d="M 116.44 95.72 C 116.16 95.74 115.92 95.54 115.89 95.27 C 115.87 94.99 116.07 94.74 116.35 94.72 C 117.01 94.60 117.67 93.13 117.94 92.13 C 117.97 92.00 118.06 91.89 118.17 91.82 C 118.28 91.76 118.42 91.74 118.55 91.77 C 118.68 91.80 118.79 91.89 118.85 92.00 C 118.92 92.12 118.94 92.25 118.90 92.38 C 118.82 92.69 118.07 95.38 116.53 95.70 Z" fill="#261d2a" fill-rule="nonzero" node-id="271" stroke="none" target-height="4.0082397" target-width="3.0664063" target-x="115.87015" target-y="91.73661"></path><path d="M 117.22 88.00 C 116.98 88.00 116.77 87.84 116.73 87.60 C 116.70 87.47 116.73 87.33 116.81 87.22 C 116.88 87.11 117.00 87.03 117.13 87.01 C 117.79 86.89 118.45 85.42 118.72 84.42 C 118.75 84.29 118.84 84.18 118.95 84.11 C 119.06 84.05 119.20 84.03 119.33 84.06 C 119.46 84.09 119.57 84.17 119.64 84.29 C 119.70 84.40 119.72 84.54 119.68 84.67 C 119.60 84.98 118.85 87.67 117.31 88.00 Z" fill="#261d2a" fill-rule="nonzero" node-id="273" stroke="none" target-height="3.9774475" target-width="3.0158997" target-x="116.703674" target-y="84.02661"></path><path d="M 125.00 79.46 C 124.80 79.46 124.61 79.33 124.54 79.14 C 124.49 79.02 124.49 78.88 124.55 78.76 C 124.60 78.64 124.70 78.54 124.82 78.49 C 125.51 78.22 125.82 76.49 125.88 75.64 C 125.89 75.51 125.94 75.38 126.04 75.29 C 126.14 75.20 126.28 75.16 126.41 75.17 C 126.68 75.19 126.89 75.43 126.88 75.70 C 126.88 76.02 126.65 78.84 125.19 79.42 C 125.13 79.44 125.07 79.46 125.00 79.46 Z" fill="#261d2a" fill-rule="nonzero" node-id="275" stroke="none" target-height="4.30101" target-width="2.4007797" target-x="124.490814" target-y="75.15899"></path><path d="M 41.45 85.09 C 41.45 85.09 38.76 75.09 48.29 77.00 C 54.22 78.16 53.06 87.37 50.37 86.33 C 47.68 85.29 52.02 82.18 54.93 83.84 C 57.84 85.50 58.24 94.84 52.02 94.21 C 45.80 93.58 48.91 89.21 49.74 91.31 C 50.57 93.41 52.85 99.19 45.60 99.19 C 38.35 99.19 38.13 91.31 41.00 91.51 C 43.87 91.71 40.58 96.70 36.23 93.38 C 31.88 90.06 33.53 78.87 40.58 80.11 C 47.63 81.35 42.07 89.00 41.45 85.09 Z" fill="#df9c49" fill-rule="nonzero" node-id="277" stroke="none" target-height="24.100006" target-width="26.360003" target-x="31.88" target-y="75.09"></path><path d="M 45.00 87.23 C 44.83 87.23 44.67 87.15 44.58 87.00 C 44.08 86.24 41.58 85.41 40.07 85.06 C 39.94 85.03 39.83 84.95 39.75 84.84 C 39.68 84.73 39.66 84.59 39.69 84.46 C 39.72 84.33 39.80 84.22 39.91 84.15 C 40.02 84.08 40.16 84.06 40.29 84.09 C 40.72 84.19 44.54 85.09 45.41 86.45 C 45.49 86.56 45.51 86.69 45.49 86.82 C 45.46 86.95 45.38 87.07 45.27 87.14 C 45.19 87.20 45.10 87.23 45.00 87.23 Z" fill="#261d2a" fill-rule="nonzero" node-id="279" stroke="none" target-height="3.1765366" target-width="5.852352" target-x="39.660213" target-y="84.05709"></path><path d="M 45.16 85.68 C 44.93 85.68 44.72 85.52 44.67 85.29 C 44.29 84.29 43.67 83.40 42.86 82.70 C 42.77 82.61 42.71 82.48 42.71 82.35 C 42.71 82.22 42.77 82.09 42.86 82.00 C 42.95 81.90 43.08 81.85 43.21 81.85 C 43.34 81.85 43.47 81.90 43.56 82.00 C 44.52 82.84 45.25 83.92 45.68 85.12 C 45.71 85.25 45.69 85.38 45.61 85.50 C 45.54 85.61 45.43 85.68 45.30 85.71 Z" fill="#261d2a" fill-rule="nonzero" node-id="281" stroke="none" target-height="3.8615189" target-width="2.9966812" target-x="42.71293" target-y="81.84848"></path><path d="M 46.38 86.43 C 46.32 86.44 46.25 86.44 46.19 86.43 C 46.07 86.38 45.97 86.28 45.92 86.16 C 45.87 86.04 45.87 85.90 45.92 85.78 C 46.23 85.01 46.92 82.78 46.56 81.50 C 46.52 81.37 46.53 81.24 46.59 81.12 C 46.65 81.00 46.75 80.91 46.88 80.87 C 47.14 80.78 47.42 80.92 47.51 81.18 C 48.12 83.02 46.89 86.03 46.84 86.18 C 46.74 86.34 46.57 86.44 46.38 86.43 Z" fill="#261d2a" fill-rule="nonzero" node-id="283" stroke="none" target-height="5.6611786" target-width="2.2535248" target-x="45.866474" target-y="80.78371"></path><path d="M 46.47 87.65 C 46.19 87.67 45.95 87.47 45.93 87.19 C 45.91 86.91 46.11 86.67 46.39 86.65 C 47.39 86.48 49.54 85.83 49.62 84.95 C 49.64 84.67 49.89 84.47 50.16 84.50 C 50.44 84.52 50.64 84.76 50.62 85.04 C 50.45 86.91 46.96 87.57 46.56 87.64 Z" fill="#261d2a" fill-rule="nonzero" node-id="285" stroke="none" target-height="3.2019348" target-width="4.7369423" target-x="45.907913" target-y="84.470146"></path><path d="M 49.64 90.34 C 48.13 90.33 46.75 89.52 46.00 88.21 C 45.93 88.10 45.91 87.96 45.94 87.83 C 45.97 87.70 46.05 87.59 46.16 87.52 C 46.27 87.45 46.41 87.42 46.54 87.45 C 46.67 87.48 46.78 87.56 46.85 87.68 C 47.55 88.99 49.08 89.63 50.51 89.20 C 50.77 89.12 51.04 89.25 51.14 89.50 C 51.23 89.76 51.10 90.04 50.85 90.14 C 50.46 90.27 50.05 90.34 49.64 90.34 Z" fill="#261d2a" fill-rule="nonzero" node-id="287" stroke="none" target-height="2.920105" target-width="5.322212" target-x="45.90673" target-y="87.42233"></path><path d="M 47.50 94.05 C 47.41 94.05 47.32 94.03 47.25 93.98 C 45.33 92.71 44.38 90.39 44.86 88.14 C 44.90 87.86 45.16 87.68 45.44 87.72 C 45.72 87.76 45.90 88.02 45.86 88.30 C 45.47 90.15 46.23 92.05 47.78 93.12 C 48.01 93.27 48.09 93.57 47.95 93.81 C 47.86 93.97 47.68 94.06 47.50 94.05 Z" fill="#261d2a" fill-rule="nonzero" node-id="289" stroke="none" target-height="6.384697" target-width="3.7066689" target-x="44.382603" target-y="87.67582"></path><path d="M 41.89 92.46 C 41.84 92.47 41.78 92.47 41.73 92.46 C 41.47 92.37 41.33 92.09 41.41 91.83 C 41.64 91.16 42.82 87.83 44.27 87.17 C 44.52 87.07 44.81 87.19 44.92 87.44 C 44.97 87.56 44.98 87.70 44.93 87.82 C 44.88 87.94 44.78 88.04 44.66 88.09 C 43.90 88.42 42.86 90.66 42.36 92.14 C 42.29 92.34 42.10 92.46 41.89 92.46 Z" fill="#261d2a" fill-rule="nonzero" node-id="291" stroke="none" target-height="5.403351" target-width="3.6451607" target-x="41.33034" target-y="87.06643"></path><path d="M 39.69 88.82 C 39.55 88.82 39.42 88.76 39.33 88.66 C 39.24 88.57 39.18 88.44 39.18 88.31 C 39.18 88.17 39.24 88.04 39.33 87.95 C 39.42 87.86 41.63 85.78 43.72 86.54 C 43.85 86.58 43.95 86.68 44.01 86.80 C 44.06 86.92 44.07 87.06 44.02 87.18 C 43.92 87.44 43.64 87.57 43.38 87.48 C 41.89 86.94 40.04 88.66 40.02 88.68 C 39.93 88.76 39.81 88.81 39.69 88.82 Z" fill="#261d2a" fill-rule="nonzero" node-id="293" stroke="none" target-height="3.040001" target-width="4.8857956" target-x="39.182102" target-y="85.78"></path><path d="M 47.91 86.99 C 47.91 88.34 46.81 89.44 45.46 89.44 C 44.11 89.44 43.01 88.34 43.01 86.99 C 43.01 85.64 44.11 84.54 45.46 84.54 C 46.81 84.54 47.91 85.64 47.91 86.99 Z" fill="#ebd573" fill-rule="nonzero" node-id="295" stroke="none" target-height="4.8999863" target-width="4.9000015" target-x="43.01" target-y="84.54"></path><path d="M 104.00 145.19 C 104.00 145.19 118.27 154.55 110.78 156.19 C 103.29 157.83 102.81 146.83 104.00 145.19 Z" fill="#d5de8c" fill-rule="nonzero" node-id="297" stroke="none" target-height="12.639999" target-width="15.459999" target-x="102.81" target-y="145.19"></path><path d="M 108.19 153.18 C 108.06 153.18 107.93 153.13 107.84 153.03 C 105.80 150.85 104.31 148.20 103.50 145.32 C 103.43 145.04 103.59 144.76 103.87 144.69 C 104.15 144.62 104.43 144.78 104.50 145.06 C 105.27 147.77 106.67 150.26 108.58 152.32 C 108.77 152.52 108.77 152.83 108.58 153.03 C 108.48 153.13 108.34 153.19 108.19 153.18 Z" fill="#261d2a" fill-rule="nonzero" node-id="299" stroke="none" target-height="8.569778" target-width="5.343582" target-x="103.4282" target-y="144.61821"></path><path d="M 106.12 138.72 C 106.12 138.72 114.51 123.87 107.12 125.85 C 99.73 127.83 104.33 137.81 106.12 138.72 Z" fill="#d5de8c" fill-rule="nonzero" node-id="301" stroke="none" target-height="14.849998" target-width="14.779991" target-x="99.73" target-y="123.87"></path><path d="M 106.12 139.22 C 105.88 139.22 105.68 139.06 105.63 138.83 C 105.04 135.90 105.17 132.87 106.00 130.00 C 106.09 129.74 106.37 129.60 106.63 129.68 C 106.76 129.72 106.86 129.81 106.92 129.92 C 106.98 130.04 106.99 130.18 106.95 130.30 C 106.20 133.02 106.10 135.87 106.66 138.63 C 106.69 138.76 106.67 138.89 106.59 139.01 C 106.52 139.12 106.41 139.19 106.28 139.22 Z" fill="#261d2a" fill-rule="nonzero" node-id="303" stroke="none" target-height="9.624619" target-width="1.9466248" target-x="105.0441" target-y="129.60034"></path><path d="M 90.65 146.13 C 90.65 146.13 93.65 158.76 87.84 159.22 C 82.03 159.68 86.91 143.09 90.65 146.13 Z" fill="#d5de8c" fill-rule="nonzero" node-id="305" stroke="none" target-height="16.589996" target-width="11.620003" target-x="82.03" target-y="143.09"></path><path d="M 88.55 153.64 C 88.29 153.64 88.07 153.43 88.05 153.17 C 88.05 152.97 87.83 148.24 90.30 145.77 C 90.49 145.58 90.81 145.58 91.00 145.77 C 91.09 145.86 91.15 145.99 91.15 146.12 C 91.15 146.26 91.09 146.39 91.00 146.48 C 88.85 148.63 89.00 153.07 89.00 153.12 C 89.01 153.25 88.96 153.38 88.87 153.48 C 88.79 153.58 88.66 153.63 88.53 153.64 Z" fill="#261d2a" fill-rule="nonzero" node-id="307" stroke="none" target-height="8.06105" target-width="3.3178864" target-x="87.83001" target-y="145.57942"></path><path d="M 90.86 135.14 C 90.86 135.14 81.40 126.24 86.03 122.65 C 90.66 119.06 95.66 135.63 90.86 135.14 Z" fill="#d5de8c" fill-rule="nonzero" node-id="309" stroke="none" target-height="16.570007" target-width="14.260002" target-x="81.4" target-y="119.06"></path><path d="M 90.86 135.64 L 90.76 135.64 C 90.49 135.58 90.32 135.32 90.37 135.05 C 91.00 132.05 88.37 128.46 88.37 128.42 C 88.21 128.20 88.26 127.88 88.48 127.72 C 88.70 127.56 89.02 127.61 89.18 127.83 C 89.30 127.99 92.06 131.83 91.35 135.25 C 91.30 135.48 91.10 135.64 90.86 135.64 Z" fill="#261d2a" fill-rule="nonzero" node-id="311" stroke="none" target-height="8.087883" target-width="3.8529205" target-x="88.20708" target-y="127.557076"></path><path d="M 78.23 138.00 C 78.23 138.00 75.53 128.00 85.07 129.91 C 91.00 131.07 89.84 140.28 87.14 139.24 C 84.44 138.20 88.80 135.09 91.70 136.75 C 94.60 138.41 95.02 147.75 88.80 147.12 C 82.58 146.49 85.69 142.12 86.52 144.22 C 87.35 146.32 89.63 152.09 82.37 152.09 C 75.11 152.09 74.91 144.22 77.81 144.42 C 80.71 144.62 77.40 149.61 73.04 146.29 C 68.68 142.97 70.35 131.75 77.40 133.00 C 84.45 134.25 78.85 141.90 78.23 138.00 Z" fill="#df9c49" fill-rule="nonzero" node-id="313" stroke="none" target-height="24.089996" target-width="26.340004" target-x="68.68" target-y="128"></path><path d="M 81.75 140.10 C 81.58 140.10 81.43 140.02 81.33 139.88 C 80.83 139.11 78.33 138.28 76.82 137.94 C 76.54 137.88 76.37 137.60 76.44 137.32 C 76.50 137.05 76.77 136.88 77.05 136.94 C 77.48 137.04 81.29 137.94 82.17 139.30 C 82.25 139.41 82.27 139.55 82.24 139.69 C 82.21 139.82 82.12 139.93 82.00 140.00 C 81.93 140.06 81.84 140.09 81.75 140.10 Z" fill="#261d2a" fill-rule="nonzero" node-id="315" stroke="none" target-height="3.223526" target-width="5.8991165" target-x="76.37149" target-y="136.87648"></path><path d="M 81.94 138.56 C 81.71 138.56 81.50 138.40 81.45 138.17 C 81.07 137.17 80.45 136.28 79.64 135.58 C 79.50 135.46 79.43 135.28 79.46 135.09 C 79.50 134.91 79.63 134.76 79.81 134.71 C 79.99 134.66 80.18 134.71 80.31 134.84 C 81.27 135.70 82.00 136.78 82.43 138.00 C 82.49 138.27 82.31 138.54 82.04 138.60 Z" fill="#261d2a" fill-rule="nonzero" node-id="317" stroke="none" target-height="3.9421387" target-width="3.058899" target-x="79.42678" target-y="134.65787"></path><path d="M 83.15 139.31 C 83.09 139.32 83.02 139.32 82.96 139.31 C 82.71 139.20 82.59 138.91 82.69 138.66 C 83.01 137.89 83.69 135.61 83.33 134.38 C 83.25 134.12 83.39 133.83 83.65 133.74 C 83.91 133.66 84.19 133.80 84.28 134.06 C 84.90 135.90 83.67 138.91 83.62 139.06 C 83.52 139.22 83.34 139.32 83.15 139.31 Z" fill="#261d2a" fill-rule="nonzero" node-id="319" stroke="none" target-height="5.6628876" target-width="2.3078918" target-x="82.59211" target-y="133.66034"></path><path d="M 83.25 140.52 C 82.97 140.54 82.73 140.34 82.70 140.06 C 82.68 139.79 82.88 139.54 83.16 139.52 C 84.16 139.34 86.32 138.69 86.40 137.82 C 86.43 137.55 86.67 137.35 86.94 137.37 C 87.07 137.38 87.20 137.44 87.28 137.54 C 87.37 137.64 87.41 137.78 87.39 137.91 C 87.22 139.78 83.73 140.44 83.33 140.51 Z" fill="#261d2a" fill-rule="nonzero" node-id="321" stroke="none" target-height="3.1926422" target-width="4.7267227" target-x="82.680145" target-y="137.3522"></path><path d="M 86.42 143.22 C 84.91 143.21 83.53 142.40 82.78 141.09 C 82.65 140.86 82.72 140.57 82.94 140.42 C 83.17 140.28 83.46 140.33 83.62 140.55 C 84.31 141.88 85.85 142.52 87.28 142.08 C 87.54 141.99 87.83 142.12 87.93 142.38 C 88.02 142.64 87.89 142.93 87.63 143.02 C 87.24 143.15 86.83 143.22 86.42 143.22 Z" fill="#261d2a" fill-rule="nonzero" node-id="323" stroke="none" target-height="2.9437866" target-width="5.375496" target-x="82.64827" target-y="140.2779"></path><path d="M 84.27 146.93 C 84.18 146.93 84.10 146.91 84.02 146.86 C 82.10 145.58 81.16 143.26 81.63 141.00 C 81.68 140.73 81.94 140.55 82.21 140.59 C 82.48 140.64 82.66 140.89 82.62 141.16 C 82.21 143.01 82.97 144.93 84.53 146.00 C 84.65 146.07 84.73 146.18 84.76 146.31 C 84.80 146.44 84.77 146.58 84.70 146.69 C 84.61 146.84 84.45 146.93 84.27 146.93 Z" fill="#261d2a" fill-rule="nonzero" node-id="325" stroke="none" target-height="6.383148" target-width="3.6371155" target-x="81.15818" target-y="140.54745"></path><path d="M 78.66 145.34 L 78.51 145.34 C 78.38 145.30 78.28 145.21 78.22 145.09 C 78.15 144.97 78.15 144.83 78.19 144.70 C 78.41 144.03 79.60 140.70 81.04 140.05 C 81.30 139.95 81.59 140.07 81.70 140.32 C 81.80 140.57 81.68 140.86 81.43 140.97 C 80.67 141.30 79.63 143.53 79.14 145.02 C 79.06 145.22 78.87 145.35 78.66 145.34 Z" fill="#261d2a" fill-rule="nonzero" node-id="327" stroke="none" target-height="5.4000244" target-width="3.657692" target-x="78.145874" target-y="139.94568"></path><path d="M 76.47 141.69 C 76.33 141.69 76.20 141.64 76.10 141.54 C 76.01 141.45 75.95 141.32 75.95 141.19 C 75.95 141.05 76.01 140.92 76.10 140.83 C 76.19 140.74 78.41 138.66 80.50 139.41 C 80.76 139.50 80.89 139.79 80.80 140.05 C 80.76 140.18 80.66 140.28 80.54 140.34 C 80.42 140.39 80.28 140.40 80.16 140.35 C 78.67 139.82 76.81 141.54 76.79 141.56 C 76.70 141.64 76.59 141.69 76.47 141.69 Z" fill="#261d2a" fill-rule="nonzero" node-id="329" stroke="none" target-height="3.0323486" target-width="4.9416656" target-x="75.9521" target-y="138.66"></path><path d="M 84.68 139.86 C 84.68 141.21 83.58 142.31 82.23 142.31 C 80.88 142.31 79.78 141.21 79.78 139.86 C 79.78 138.51 80.88 137.41 82.23 137.41 C 83.58 137.41 84.68 138.51 84.68 139.86 Z" fill="#ebd573" fill-rule="nonzero" node-id="331" stroke="none" target-height="4.899994" target-width="4.899994" target-x="79.78001" target-y="137.41"></path><path d="M 93.52 139.18 C 93.52 139.18 90.83 129.18 100.37 131.10 C 106.30 132.26 105.14 141.46 102.44 140.43 C 99.74 139.40 104.10 136.28 107.00 137.94 C 109.90 139.60 110.32 148.94 104.10 148.31 C 97.88 147.68 100.99 143.31 101.82 145.40 C 102.65 147.49 104.93 153.28 97.67 153.28 C 90.41 153.28 90.21 145.40 93.11 145.61 C 96.01 145.82 92.70 150.79 88.34 147.48 C 83.98 144.17 85.65 133.00 92.70 134.21 C 99.75 135.42 94.15 143.12 93.52 139.18 Z" fill="#9c7f94" fill-rule="nonzero" node-id="333" stroke="none" target-height="24.100006" target-width="26.339989" target-x="83.98" target-y="129.18"></path><path d="M 97.05 141.32 C 96.88 141.32 96.73 141.24 96.63 141.10 C 96.13 140.33 93.63 139.50 92.12 139.16 C 91.99 139.13 91.88 139.05 91.81 138.94 C 91.74 138.83 91.72 138.69 91.75 138.56 C 91.78 138.43 91.86 138.32 91.97 138.24 C 92.08 138.17 92.22 138.15 92.35 138.18 C 92.78 138.28 96.59 139.18 97.47 140.55 C 97.54 140.66 97.57 140.80 97.54 140.93 C 97.51 141.06 97.43 141.17 97.32 141.24 C 97.24 141.29 97.15 141.32 97.05 141.32 Z" fill="#261d2a" fill-rule="nonzero" node-id="335" stroke="none" target-height="3.172699" target-width="5.8530045" target-x="91.71709" target-y="138.1502"></path><path d="M 97.24 139.78 C 97.01 139.78 96.80 139.62 96.75 139.39 C 96.37 138.39 95.75 137.50 94.94 136.80 C 94.80 136.68 94.73 136.50 94.76 136.31 C 94.80 136.13 94.93 135.98 95.11 135.93 C 95.29 135.88 95.48 135.93 95.61 136.06 C 96.57 136.90 97.30 137.97 97.73 139.17 C 97.79 139.44 97.61 139.71 97.34 139.77 Z" fill="#261d2a" fill-rule="nonzero" node-id="337" stroke="none" target-height="3.903183" target-width="3.0589066" target-x="94.726776" target-y="135.87787"></path><path d="M 98.45 140.53 C 98.39 140.54 98.32 140.54 98.26 140.53 C 98.01 140.42 97.89 140.13 97.99 139.88 C 98.31 139.10 99.04 136.83 98.63 135.60 C 98.55 135.34 98.69 135.05 98.95 134.96 C 99.21 134.88 99.49 135.02 99.58 135.28 C 100.20 137.12 98.97 140.13 98.92 140.28 C 98.82 140.44 98.64 140.54 98.45 140.53 Z" fill="#261d2a" fill-rule="nonzero" node-id="339" stroke="none" target-height="5.6628876" target-width="2.3078918" target-x="97.892105" target-y="134.88034"></path><path d="M 98.55 141.74 C 98.27 141.76 98.03 141.56 98.01 141.28 C 97.98 141.01 98.18 140.76 98.46 140.74 C 99.46 140.56 101.62 139.91 101.70 139.04 C 101.71 138.91 101.77 138.78 101.87 138.70 C 101.98 138.61 102.11 138.57 102.24 138.58 C 102.37 138.59 102.50 138.66 102.58 138.76 C 102.66 138.86 102.70 139.00 102.69 139.13 C 102.52 141.00 99.03 141.66 98.63 141.73 Z" fill="#261d2a" fill-rule="nonzero" node-id="341" stroke="none" target-height="3.1958923" target-width="4.723793" target-x="97.98015" target-y="138.56895"></path><path d="M 101.72 144.43 C 100.22 144.42 98.83 143.62 98.08 142.31 C 97.97 142.16 97.96 141.96 98.04 141.80 C 98.12 141.63 98.29 141.52 98.47 141.52 C 98.66 141.51 98.83 141.61 98.92 141.77 C 99.61 143.09 101.15 143.74 102.58 143.30 C 102.84 143.20 103.13 143.34 103.22 143.59 C 103.32 143.85 103.19 144.14 102.93 144.24 C 102.54 144.37 102.13 144.43 101.72 144.43 Z" fill="#261d2a" fill-rule="nonzero" node-id="343" stroke="none" target-height="2.9219208" target-width="5.366188" target-x="97.95546" target-y="141.5124"></path><path d="M 99.57 148.15 C 99.48 148.15 99.40 148.13 99.32 148.08 C 97.41 146.80 96.47 144.49 96.93 142.24 C 96.97 141.96 97.23 141.78 97.51 141.82 C 97.79 141.86 97.97 142.12 97.93 142.40 C 97.53 144.25 98.29 146.15 99.84 147.22 C 99.95 147.29 100.04 147.40 100.07 147.53 C 100.10 147.66 100.08 147.80 100.01 147.91 C 99.92 148.06 99.75 148.15 99.57 148.15 Z" fill="#261d2a" fill-rule="nonzero" node-id="345" stroke="none" target-height="6.3767395" target-width="3.633873" target-x="96.46697" target-y="141.77582"></path><path d="M 94.00 146.56 C 93.95 146.57 93.90 146.57 93.85 146.56 C 93.72 146.52 93.62 146.43 93.56 146.31 C 93.50 146.19 93.49 146.06 93.53 145.93 C 93.75 145.26 94.94 141.93 96.38 141.28 C 96.55 141.20 96.74 141.22 96.89 141.33 C 97.04 141.44 97.11 141.62 97.09 141.80 C 97.06 141.98 96.94 142.14 96.77 142.20 C 96.01 142.53 94.97 144.76 94.48 146.25 C 94.40 146.44 94.21 146.57 94.00 146.56 Z" fill="#261d2a" fill-rule="nonzero" node-id="347" stroke="none" target-height="5.367462" target-width="3.6268845" target-x="93.48612" target-y="141.202"></path><path d="M 91.77 142.91 C 91.63 142.91 91.50 142.86 91.40 142.76 C 91.31 142.67 91.25 142.54 91.25 142.41 C 91.25 142.27 91.31 142.14 91.40 142.05 C 91.49 141.96 93.70 139.88 95.80 140.63 C 96.06 140.72 96.19 141.01 96.10 141.27 C 96.01 141.53 95.72 141.66 95.46 141.57 C 93.97 141.03 92.11 142.76 92.09 142.77 C 92.01 142.86 91.89 142.91 91.77 142.91 Z" fill="#261d2a" fill-rule="nonzero" node-id="349" stroke="none" target-height="3.0323486" target-width="4.9416733" target-x="91.2521" target-y="139.88"></path><path d="M 99.98 141.08 C 99.98 142.43 98.88 143.53 97.53 143.53 C 96.18 143.53 95.08 142.43 95.08 141.08 C 95.08 139.73 96.18 138.63 97.53 138.63 C 98.88 138.63 99.98 139.73 99.98 141.08 Z" fill="#ebd573" fill-rule="nonzero" node-id="351" stroke="none" target-height="4.899994" target-width="4.899994" target-x="95.079994" target-y="138.63"></path><path d="M 109.80 137.64 C 109.80 137.64 107.11 127.69 116.64 129.55 C 122.58 130.71 121.41 139.92 118.72 138.88 C 116.03 137.84 120.37 134.73 123.28 136.39 C 126.19 138.05 126.59 147.39 120.37 146.76 C 114.15 146.13 117.26 141.76 118.09 143.86 C 118.92 145.96 121.20 151.74 113.95 151.74 C 106.70 151.74 106.48 143.86 109.39 144.06 C 112.30 144.26 108.97 149.25 104.62 145.93 C 100.27 142.61 101.92 131.42 108.97 132.66 C 116.02 133.90 110.42 141.58 109.80 137.64 Z" fill="#df9c49" fill-rule="nonzero" node-id="353" stroke="none" target-height="24.050003" target-width="26.32" target-x="100.27" target-y="127.69"></path><path d="M 113.33 139.78 C 113.16 139.78 113.00 139.70 112.91 139.55 C 112.41 138.79 109.91 137.96 108.40 137.61 C 108.27 137.58 108.16 137.50 108.08 137.39 C 108.01 137.28 107.99 137.14 108.02 137.01 C 108.05 136.88 108.13 136.77 108.24 136.70 C 108.35 136.63 108.49 136.61 108.62 136.64 C 109.05 136.74 112.87 137.64 113.75 139.00 C 113.90 139.23 113.83 139.54 113.60 139.69 C 113.52 139.75 113.43 139.78 113.33 139.78 Z" fill="#261d2a" fill-rule="nonzero" node-id="355" stroke="none" target-height="3.1765442" target-width="5.908493" target-x="107.99021" target-y="136.60709"></path><path d="M 113.51 138.23 C 113.28 138.23 113.07 138.07 113.02 137.84 C 112.64 136.84 112.02 135.95 111.22 135.25 C 111.06 135.06 111.06 134.78 111.23 134.59 C 111.39 134.40 111.67 134.37 111.88 134.51 C 112.85 135.35 113.58 136.42 114.00 137.63 C 114.03 137.76 114.01 137.89 113.93 138.01 C 113.86 138.12 113.75 138.19 113.62 138.22 Z" fill="#261d2a" fill-rule="nonzero" node-id="357" stroke="none" target-height="3.8614197" target-width="2.973755" target-x="111.055855" target-y="134.36858"></path><path d="M 114.73 139.00 C 114.67 139.01 114.60 139.01 114.54 139.00 C 114.42 138.95 114.32 138.85 114.27 138.73 C 114.22 138.61 114.22 138.47 114.27 138.35 C 114.58 137.58 115.27 135.35 114.91 134.07 C 114.87 133.94 114.88 133.81 114.94 133.69 C 115.00 133.57 115.10 133.48 115.23 133.44 C 115.49 133.35 115.77 133.49 115.86 133.75 C 116.47 135.59 115.24 138.60 115.19 138.75 C 115.10 138.91 114.92 139.01 114.73 139.00 Z" fill="#261d2a" fill-rule="nonzero" node-id="359" stroke="none" target-height="5.6604614" target-width="2.2535324" target-x="114.21648" target-y="133.3537"></path><path d="M 114.82 140.20 C 114.57 140.20 114.37 140.02 114.33 139.78 C 114.29 139.51 114.47 139.25 114.74 139.20 C 115.74 139.03 117.89 138.37 117.97 137.50 C 118.01 137.23 118.25 137.03 118.52 137.05 C 118.79 137.08 118.99 137.32 118.97 137.59 C 118.80 139.46 115.31 140.12 114.91 140.19 Z" fill="#261d2a" fill-rule="nonzero" node-id="361" stroke="none" target-height="3.1707306" target-width="4.7057266" target-x="114.28745" target-y="137.03178"></path><path d="M 118.00 142.89 C 116.49 142.88 115.11 142.07 114.36 140.76 C 114.21 140.53 114.28 140.21 114.51 140.06 C 114.75 139.92 115.06 139.99 115.21 140.22 C 115.90 141.55 117.44 142.19 118.87 141.75 C 119.13 141.66 119.42 141.79 119.51 142.05 C 119.56 142.17 119.55 142.31 119.50 142.43 C 119.44 142.55 119.34 142.65 119.21 142.69 C 118.82 142.83 118.41 142.89 118.00 142.89 Z" fill="#261d2a" fill-rule="nonzero" node-id="363" stroke="none" target-height="2.9775543" target-width="5.3470154" target-x="114.210884" target-y="139.91588"></path><path d="M 115.85 146.60 C 115.76 146.60 115.67 146.58 115.60 146.53 C 113.68 145.26 112.73 142.94 113.21 140.69 C 113.25 140.41 113.51 140.23 113.79 140.27 C 114.07 140.31 114.25 140.57 114.21 140.85 C 113.82 142.70 114.58 144.60 116.13 145.67 C 116.32 145.79 116.42 146.02 116.36 146.23 C 116.30 146.45 116.10 146.60 115.87 146.60 Z" fill="#261d2a" fill-rule="nonzero" node-id="365" stroke="none" target-height="6.376404" target-width="3.6847153" target-x="112.7326" target-y="140.22581"></path><path d="M 110.24 145.00 C 110.19 145.01 110.13 145.01 110.08 145.00 C 109.95 144.96 109.85 144.86 109.79 144.74 C 109.73 144.62 109.73 144.49 109.77 144.36 C 109.99 143.70 111.17 140.36 112.62 139.71 C 112.87 139.61 113.15 139.74 113.26 139.98 C 113.36 140.23 113.25 140.52 113.01 140.63 C 112.25 140.96 111.21 143.20 110.71 144.63 C 110.66 144.85 110.46 145.00 110.24 145.00 Z" fill="#261d2a" fill-rule="nonzero" node-id="367" stroke="none" target-height="5.3949585" target-width="3.6369095" target-x="109.72544" target-y="139.61482"></path><path d="M 108.00 141.37 C 107.86 141.37 107.73 141.31 107.64 141.21 C 107.55 141.12 107.49 140.99 107.49 140.85 C 107.49 140.72 107.55 140.59 107.64 140.50 C 107.73 140.41 109.94 138.34 112.03 139.09 C 112.15 139.13 112.26 139.22 112.31 139.34 C 112.37 139.46 112.37 139.60 112.33 139.72 C 112.29 139.85 112.19 139.95 112.07 140.01 C 111.95 140.07 111.82 140.07 111.69 140.03 C 110.20 139.49 108.35 141.21 108.33 141.23 C 108.24 141.31 108.12 141.36 108.00 141.37 Z" fill="#261d2a" fill-rule="nonzero" node-id="369" stroke="none" target-height="3.0299988" target-width="4.882622" target-x="107.4921" target-y="138.34"></path><path d="M 116.26 139.54 C 116.26 140.89 115.16 141.99 113.81 141.99 C 112.46 141.99 111.36 140.89 111.36 139.54 C 111.36 138.19 112.46 137.09 113.81 137.09 C 115.16 137.09 116.26 138.19 116.26 139.54 Z" fill="#ebd573" fill-rule="nonzero" node-id="371" stroke="none" target-height="4.899994" target-width="4.899994" target-x="111.36" target-y="137.09"></path><path d="M 115.91 109.67 C 115.73 109.67 115.56 109.57 115.47 109.41 C 115.34 109.17 115.43 108.87 115.67 108.73 C 116.04 108.53 124.83 103.73 133.12 106.12 C 133.40 106.19 133.56 106.48 133.49 106.75 C 133.41 107.03 133.13 107.19 132.85 107.12 C 124.96 104.87 116.24 109.60 116.15 109.65 C 116.07 109.67 115.99 109.68 115.91 109.67 Z" fill="#261d2a" fill-rule="nonzero" node-id="373" stroke="none" target-height="5.9518356" target-width="18.217033" target-x="115.34252" target-y="103.73"></path><path d="M 68.46 46.94 L 68.23 46.94 C 67.95 46.94 67.73 46.72 67.73 46.44 C 67.73 46.16 67.95 45.94 68.23 45.94 L 68.46 45.94 C 69.02 45.94 69.59 45.89 70.14 45.80 C 70.41 45.76 70.66 45.93 70.72 46.20 C 70.74 46.33 70.71 46.47 70.64 46.58 C 70.56 46.68 70.44 46.76 70.31 46.78 C 69.70 46.89 69.08 46.94 68.46 46.94 Z M 66.24 46.76 L 66.17 46.76 C 65.53 46.66 64.85 46.53 64.17 46.36 C 63.90 46.29 63.74 46.02 63.80 45.75 C 63.83 45.62 63.92 45.51 64.03 45.44 C 64.14 45.38 64.28 45.36 64.41 45.39 C 65.07 45.55 65.72 45.68 66.33 45.77 C 66.46 45.79 66.58 45.86 66.66 45.97 C 66.74 46.07 66.77 46.21 66.75 46.34 C 66.71 46.59 66.49 46.76 66.24 46.76 Z M 72.11 46.16 C 71.93 46.16 71.76 46.05 71.67 45.89 C 71.55 45.65 71.64 45.35 71.88 45.22 C 72.41 44.94 72.88 44.55 73.25 44.08 C 73.33 43.96 73.46 43.88 73.61 43.87 C 73.75 43.85 73.89 43.90 74.00 44.00 C 74.22 44.17 74.26 44.48 74.09 44.70 C 73.63 45.28 73.06 45.76 72.40 46.10 C 72.31 46.15 72.21 46.17 72.11 46.16 Z M 62.36 45.82 C 62.31 45.83 62.25 45.83 62.20 45.82 C 61.05 45.45 60.31 45.12 60.28 45.11 C 60.16 45.06 60.06 44.96 60.01 44.83 C 59.96 44.71 59.97 44.57 60.02 44.45 C 60.13 44.20 60.43 44.08 60.68 44.19 C 60.68 44.19 61.41 44.51 62.51 44.87 C 62.79 44.91 62.98 45.17 62.93 45.45 C 62.89 45.72 62.64 45.91 62.36 45.87 Z M 74.55 43.12 C 74.50 43.13 74.45 43.13 74.40 43.12 C 74.14 43.03 73.99 42.75 74.08 42.49 C 74.28 41.88 74.44 41.25 74.56 40.62 C 74.58 40.49 74.65 40.37 74.76 40.29 C 74.87 40.22 75.01 40.19 75.14 40.22 C 75.41 40.27 75.59 40.53 75.54 40.80 C 75.41 41.48 75.24 42.14 75.03 42.80 C 74.95 43.00 74.76 43.13 74.55 43.12 Z M 75.30 39.21 L 75.30 39.21 C 75.13 39.20 74.98 39.11 74.89 38.96 C 74.56 39.00 74.22 39.00 73.89 38.96 C 73.61 38.93 73.41 38.69 73.44 38.41 C 73.47 38.13 73.71 37.93 73.99 37.96 C 74.29 38.00 74.58 38.00 74.88 37.96 L 74.88 37.80 C 74.88 37.44 74.88 37.09 74.88 36.80 C 74.87 36.67 74.91 36.54 75.00 36.43 C 75.08 36.33 75.21 36.27 75.34 36.26 C 75.47 36.24 75.61 36.28 75.71 36.37 C 75.81 36.46 75.88 36.59 75.88 36.72 C 75.88 37.04 75.88 37.38 75.88 37.72 C 76.16 37.67 76.42 37.85 76.47 38.12 C 76.53 38.40 76.35 38.67 76.07 38.72 L 75.86 38.79 L 75.86 38.79 C 75.81 39.06 75.57 39.24 75.30 39.21 Z M 72.10 38.14 C 71.97 38.14 71.84 38.08 71.75 37.99 C 71.20 37.43 70.85 36.70 70.75 35.92 C 70.71 35.64 70.91 35.39 71.19 35.35 C 71.46 35.32 71.71 35.51 71.75 35.79 C 71.81 36.35 72.05 36.88 72.43 37.29 C 72.53 37.38 72.58 37.51 72.58 37.64 C 72.58 37.77 72.53 37.90 72.43 37.99 C 72.34 38.08 72.23 38.14 72.10 38.14 Z M 77.57 37.70 C 77.35 37.70 77.16 37.56 77.10 37.36 C 77.03 37.15 77.10 36.93 77.27 36.80 C 77.66 36.51 78.03 36.19 78.37 35.85 L 78.67 35.52 C 78.86 35.33 79.16 35.31 79.36 35.49 C 79.56 35.67 79.59 35.97 79.42 36.18 C 79.31 36.31 79.20 36.43 79.08 36.55 C 78.70 36.93 78.30 37.28 77.87 37.60 C 77.78 37.67 77.68 37.70 77.57 37.70 Z M 75.00 35.23 C 74.77 35.23 74.58 35.08 74.52 34.86 C 74.38 34.26 74.15 33.69 73.83 33.17 C 73.68 32.94 73.74 32.63 73.97 32.47 C 74.20 32.32 74.51 32.39 74.66 32.62 C 75.04 33.24 75.32 33.91 75.49 34.62 C 75.52 34.75 75.50 34.89 75.44 35.00 C 75.37 35.11 75.26 35.20 75.13 35.23 Z M 80.20 34.70 C 80.12 34.70 80.04 34.68 79.97 34.64 C 79.85 34.58 79.76 34.48 79.72 34.35 C 79.68 34.22 79.70 34.09 79.76 33.97 C 80.06 33.40 80.31 32.81 80.53 32.20 C 80.62 31.94 80.91 31.81 81.17 31.90 C 81.43 31.99 81.56 32.28 81.47 32.54 C 81.24 33.19 80.96 33.82 80.64 34.43 C 80.55 34.61 80.36 34.71 80.16 34.70 Z M 71.55 34.39 L 71.39 34.39 C 71.13 34.30 70.99 34.02 71.08 33.76 C 71.14 33.58 71.21 33.40 71.29 33.22 C 71.49 32.67 71.83 32.19 72.29 31.83 C 72.52 31.68 72.83 31.74 72.98 31.98 C 73.14 32.21 73.07 32.52 72.84 32.67 C 72.53 32.93 72.29 33.28 72.16 33.67 C 72.10 33.82 72.04 33.97 71.99 34.12 C 71.89 34.29 71.71 34.40 71.51 34.39 Z M 81.58 31.00 L 81.44 31.00 C 81.31 30.96 81.20 30.88 81.14 30.76 C 81.07 30.64 81.06 30.50 81.10 30.37 L 81.67 28.46 C 81.75 28.18 82.03 28.02 82.31 28.10 C 82.59 28.18 82.75 28.46 82.67 28.74 L 82.10 30.66 C 82.03 30.88 81.81 31.03 81.58 31.00 Z M 82.78 27.18 C 82.72 27.19 82.67 27.19 82.61 27.18 C 82.35 27.09 82.22 26.80 82.31 26.54 C 82.54 25.90 82.81 25.26 83.12 24.65 C 83.18 24.53 83.29 24.44 83.41 24.40 C 83.54 24.36 83.68 24.37 83.80 24.43 C 83.99 24.55 84.07 24.79 84.00 25.00 C 83.71 25.58 83.46 26.17 83.24 26.78 C 83.18 26.99 83.00 27.13 82.78 27.15 Z M 84.62 23.65 C 84.51 23.65 84.40 23.61 84.32 23.54 C 84.10 23.37 84.05 23.06 84.22 22.84 C 84.64 22.28 85.13 21.77 85.66 21.32 C 85.87 21.14 86.19 21.17 86.37 21.38 C 86.46 21.48 86.50 21.61 86.49 21.74 C 86.48 21.87 86.41 22.00 86.31 22.08 C 85.82 22.48 85.39 22.93 85.00 23.42 C 84.91 23.54 84.77 23.61 84.62 23.62 Z M 104.31 23.43 C 104.15 23.43 103.99 23.35 103.90 23.21 C 103.54 22.70 103.11 22.25 102.62 21.87 C 102.41 21.69 102.38 21.38 102.55 21.16 C 102.63 21.06 102.75 20.99 102.89 20.98 C 103.02 20.96 103.15 21.00 103.25 21.09 C 103.81 21.53 104.31 22.06 104.72 22.64 C 104.80 22.75 104.83 22.89 104.80 23.02 C 104.78 23.15 104.70 23.27 104.59 23.34 C 104.51 23.39 104.41 23.41 104.31 23.40 Z M 87.64 21.07 C 87.41 21.07 87.20 20.91 87.15 20.68 C 87.10 20.46 87.21 20.22 87.42 20.12 C 88.04 19.81 88.69 19.55 89.35 19.35 C 89.62 19.28 89.89 19.43 89.98 19.69 C 90.05 19.95 89.90 20.23 89.64 20.31 C 89.03 20.49 88.44 20.73 87.87 21.01 C 87.80 21.05 87.72 21.07 87.64 21.07 Z M 101.25 20.89 C 101.17 20.89 101.10 20.87 101.03 20.84 C 100.46 20.56 99.86 20.34 99.25 20.17 C 98.97 20.10 98.81 19.82 98.88 19.54 C 98.95 19.26 99.23 19.10 99.51 19.17 C 100.20 19.35 100.87 19.59 101.51 19.90 C 101.63 19.96 101.72 20.06 101.76 20.18 C 101.81 20.31 101.80 20.44 101.74 20.56 C 101.66 20.76 101.47 20.90 101.25 20.89 Z M 91.44 19.89 C 91.19 19.89 90.98 19.70 90.95 19.46 C 90.91 19.19 91.10 18.94 91.37 18.90 L 91.76 18.84 C 92.33 18.77 92.88 18.72 93.40 18.68 C 93.53 18.67 93.66 18.72 93.76 18.80 C 93.86 18.89 93.92 19.02 93.93 19.15 C 93.94 19.28 93.90 19.41 93.81 19.51 C 93.73 19.61 93.60 19.67 93.47 19.68 C 92.96 19.68 92.47 19.77 91.88 19.84 L 91.52 19.84 Z M 97.44 19.78 L 97.38 19.78 C 96.76 19.70 96.11 19.66 95.44 19.64 C 95.31 19.64 95.18 19.59 95.09 19.49 C 94.99 19.39 94.94 19.26 94.95 19.13 C 94.95 19.00 95.01 18.87 95.10 18.78 C 95.20 18.69 95.33 18.64 95.46 18.64 C 96.16 18.64 96.85 18.71 97.46 18.79 C 97.74 18.81 97.94 19.05 97.93 19.32 C 97.91 19.60 97.67 19.81 97.39 19.79 Z" fill="#261d2a" fill-rule="nonzero" node-id="375" stroke="none" target-height="28.307537" target-width="44.861946" target-x="59.963882" target-y="18.637321"></path><path d="M 207.50 181.61 L 207.50 181.61 C 206.80 181.57 206.11 181.46 205.43 181.27 C 205.30 181.24 205.19 181.15 205.13 181.04 C 205.06 180.92 205.04 180.79 205.08 180.66 C 205.15 180.40 205.43 180.24 205.69 180.31 C 206.30 180.48 206.93 180.58 207.56 180.61 C 207.69 180.62 207.82 180.68 207.91 180.78 C 207.99 180.88 208.04 181.01 208.03 181.14 C 208.02 181.27 207.97 181.40 207.87 181.49 C 207.77 181.58 207.63 181.62 207.50 181.61 Z M 209.50 181.48 C 209.26 181.48 209.06 181.31 209.01 181.08 C 208.96 180.81 209.14 180.55 209.41 180.49 C 210.01 180.38 210.60 180.17 211.13 179.87 C 211.37 179.74 211.67 179.82 211.81 180.06 C 211.94 180.30 211.86 180.60 211.62 180.74 C 211.00 181.09 210.32 181.34 209.62 181.47 Z M 203.68 180.57 C 203.60 180.59 203.53 180.59 203.45 180.57 C 202.82 180.24 202.23 179.85 201.69 179.40 C 201.53 179.29 201.44 179.10 201.47 178.91 C 201.50 178.72 201.63 178.57 201.81 178.51 C 202.00 178.45 202.20 178.50 202.33 178.64 C 202.82 179.02 203.35 179.36 203.91 179.64 C 204.11 179.75 204.21 179.98 204.16 180.20 C 204.10 180.42 203.91 180.58 203.68 180.58 Z M 200.68 178.02 C 200.52 178.02 200.38 177.94 200.28 177.82 C 199.88 177.25 199.54 176.63 199.28 175.98 C 199.18 175.73 199.30 175.44 199.55 175.33 C 199.67 175.28 199.81 175.27 199.93 175.32 C 200.05 175.37 200.15 175.47 200.20 175.59 C 200.45 176.17 200.76 176.72 201.14 177.22 C 201.30 177.44 201.25 177.75 201.03 177.92 C 200.92 178.01 200.77 178.04 200.63 178.00 Z M 199.12 174.38 C 198.88 174.38 198.67 174.21 198.63 173.97 C 198.50 173.28 198.44 172.59 198.44 171.89 C 198.44 171.61 198.66 171.39 198.94 171.39 L 198.94 171.39 C 199.22 171.39 199.44 171.61 199.44 171.89 C 199.44 172.53 199.50 173.16 199.61 173.79 C 199.66 174.06 199.48 174.32 199.21 174.37 Z M 199.12 170.38 L 199.00 170.38 C 198.73 170.34 198.54 170.09 198.58 169.82 C 198.68 169.15 198.82 168.48 199.00 167.82 C 199.07 167.54 199.35 167.38 199.63 167.45 C 199.91 167.52 200.07 167.80 200.00 168.08 C 199.83 168.70 199.69 169.34 199.60 169.98 C 199.58 170.12 199.51 170.24 199.39 170.32 C 199.28 170.40 199.14 170.43 199.00 170.40 Z M 200.12 166.52 C 200.06 166.53 200.00 166.53 199.94 166.52 C 199.81 166.47 199.71 166.38 199.66 166.26 C 199.60 166.13 199.60 165.99 199.65 165.87 C 199.88 165.26 200.14 164.63 200.44 164.00 C 200.49 163.88 200.59 163.78 200.72 163.73 C 200.84 163.69 200.98 163.69 201.10 163.75 C 201.22 163.81 201.31 163.91 201.36 164.03 C 201.41 164.16 201.40 164.30 201.34 164.42 C 201.06 165.03 200.80 165.64 200.59 166.22 C 200.51 166.44 200.29 166.57 200.06 166.54 Z M 201.79 162.89 C 201.71 162.89 201.62 162.87 201.55 162.83 C 201.31 162.69 201.22 162.39 201.35 162.15 C 201.70 161.51 202.04 160.92 202.35 160.40 C 202.42 160.28 202.53 160.20 202.66 160.17 C 202.79 160.14 202.93 160.17 203.04 160.24 C 203.27 160.39 203.34 160.69 203.20 160.93 C 202.88 161.44 202.55 162.01 202.20 162.63 C 202.11 162.81 201.93 162.92 201.73 162.91 Z M 208.79 160.37 C 208.71 160.38 208.64 160.38 208.56 160.37 C 207.94 160.03 207.36 159.60 206.85 159.10 C 206.76 159.01 206.70 158.88 206.70 158.75 C 206.70 158.61 206.76 158.48 206.85 158.39 C 206.94 158.30 207.07 158.24 207.21 158.24 C 207.34 158.24 207.47 158.30 207.56 158.39 C 208.00 158.82 208.51 159.19 209.05 159.49 C 209.29 159.62 209.39 159.91 209.27 160.16 C 209.16 160.36 208.92 160.45 208.70 160.39 Z M 210.53 160.12 C 210.46 160.13 210.40 160.13 210.33 160.12 C 210.21 160.07 210.11 159.97 210.06 159.84 C 210.01 159.72 210.02 159.58 210.07 159.46 C 210.13 159.32 210.15 159.18 210.15 159.03 C 210.14 158.66 210.04 158.29 209.87 157.96 C 209.75 157.71 209.85 157.41 210.09 157.28 C 210.34 157.16 210.65 157.26 210.77 157.51 C 211.01 157.98 211.14 158.50 211.15 159.03 C 211.16 159.32 211.10 159.60 210.99 159.87 C 210.88 160.07 210.66 160.18 210.44 160.14 Z M 203.96 159.52 C 203.85 159.52 203.75 159.49 203.66 159.42 C 203.44 159.25 203.40 158.93 203.57 158.71 C 203.99 158.16 204.46 157.64 204.97 157.17 L 205.05 157.11 C 204.74 156.73 204.45 156.33 204.19 155.91 C 204.04 155.68 204.10 155.37 204.33 155.22 C 204.57 155.08 204.87 155.14 205.03 155.37 C 205.38 155.91 205.76 156.43 206.19 156.91 C 206.38 157.11 206.38 157.42 206.19 157.62 C 206.08 157.71 205.95 157.75 205.81 157.74 C 205.78 157.80 205.74 157.86 205.69 157.91 C 205.22 158.34 204.79 158.82 204.41 159.33 C 204.29 159.50 204.08 159.58 203.87 159.54 Z M 206.96 156.93 C 206.76 156.93 206.57 156.81 206.50 156.62 C 206.40 156.37 206.52 156.08 206.77 155.97 C 207.50 155.64 208.33 155.60 209.09 155.87 C 209.22 155.92 209.32 156.01 209.37 156.13 C 209.43 156.26 209.43 156.40 209.38 156.52 C 209.28 156.78 208.99 156.91 208.73 156.81 C 208.22 156.63 207.65 156.66 207.16 156.89 C 207.08 156.96 206.97 157.00 206.86 157.00 Z M 203.67 154.38 C 203.47 154.38 203.29 154.26 203.21 154.08 C 202.94 153.44 202.73 152.77 202.59 152.08 C 202.56 151.95 202.59 151.81 202.66 151.70 C 202.73 151.59 202.85 151.51 202.98 151.49 C 203.11 151.46 203.25 151.49 203.36 151.56 C 203.47 151.64 203.54 151.75 203.57 151.88 C 203.70 152.50 203.88 153.11 204.13 153.69 C 204.18 153.81 204.19 153.95 204.14 154.07 C 204.09 154.19 203.99 154.29 203.87 154.34 C 203.78 154.39 203.67 154.41 203.57 154.40 Z M 202.90 150.49 L 202.90 150.49 C 202.63 150.48 202.41 150.25 202.41 149.98 C 202.43 149.28 202.52 148.58 202.68 147.90 C 202.71 147.77 202.79 147.66 202.91 147.59 C 203.02 147.52 203.16 147.50 203.29 147.53 C 203.56 147.59 203.72 147.86 203.66 148.13 C 203.51 148.74 203.42 149.37 203.41 150.00 C 203.41 150.15 203.35 150.30 203.23 150.40 C 203.11 150.50 202.95 150.54 202.80 150.51 Z M 203.80 146.62 C 203.73 146.64 203.67 146.64 203.60 146.62 C 203.48 146.57 203.38 146.47 203.33 146.34 C 203.28 146.22 203.29 146.08 203.34 145.96 C 203.63 145.33 203.96 144.72 204.34 144.13 C 204.41 144.02 204.52 143.94 204.65 143.91 C 204.78 143.88 204.92 143.90 205.03 143.97 C 205.26 144.12 205.33 144.42 205.19 144.66 C 204.85 145.20 204.55 145.77 204.29 146.36 C 204.19 146.58 203.94 146.70 203.70 146.64 Z M 205.90 143.22 C 205.78 143.22 205.67 143.18 205.58 143.11 C 205.37 142.94 205.33 142.63 205.50 142.41 C 205.92 141.90 206.37 141.41 206.86 140.88 C 207.05 140.70 207.35 140.71 207.54 140.89 C 207.73 141.07 207.75 141.37 207.58 141.57 C 207.13 142.04 206.69 142.53 206.29 143.04 C 206.18 143.19 205.99 143.27 205.80 143.24 Z M 208.68 140.36 C 208.47 140.36 208.29 140.23 208.22 140.03 C 208.14 139.83 208.20 139.62 208.36 139.48 C 208.87 139.02 209.42 138.59 209.99 138.21 C 210.22 138.06 210.52 138.12 210.68 138.34 C 210.76 138.45 210.78 138.59 210.76 138.72 C 210.73 138.85 210.65 138.97 210.54 139.04 C 210.01 139.41 209.50 139.81 209.01 140.23 C 208.90 140.35 208.74 140.41 208.58 140.38 Z" fill="#261d2a" fill-rule="nonzero" node-id="377" stroke="none" target-height="43.56363" target-width="13.508896" target-x="198.43599" target-y="138.05739"></path></svg>